<?xml version="1.0" encoding="utf-8"?>
<!-- Generator: Adobe Illustrator 28.2.0, SVG Export Plug-In . SVG Version: 6.00 Build 0)  -->
<svg version="1.1" id="Layer_1" xmlns="http://www.w3.org/2000/svg" xmlns:xlink="http://www.w3.org/1999/xlink" x="0px" y="0px"
	 viewBox="0 0 205.8 194.4" style="enable-background:new 0 0 205.8 194.4;" xml:space="preserve">
<style type="text/css">
	.st0{fill:#CE0E2D;}
	.st1{fill:#011E41;}
	.st2{fill:#FFFFFF;}
	.st3{fill:#081E40;}
</style>
<g>
	<path class="st0" d="M63.7,6.1c0,23.3,0,46.7,0,70c19-15.9,37.8-18.5,61.7-17.3c23.6,1.2,42.4-0.3,61.7-15.3
		C140.5,53.4,110.4-6.8,63.7,6.1z"/>
	<path class="st0" d="M62.9,77.6c0-24,0-48.1,0-72.1c48-14.2,79.1,50.3,127.1,36c-19.5,16.8-38.9,19.3-63.6,18
		C101.7,58.3,82.3,60.8,62.9,77.6z M64.4,6.6c0,22.6,0,45.3,0,67.9c18.4-15.1,36.8-17.8,59.9-16.7c22.4,1.1,40.8,0.4,59.9-12.9
		C139.1,50.9,109.9-4.8,64.4,6.6z"/>
	<path class="st1" d="M70.6,16.3c0.2,0,0.3,0,0.5,0c0.3,0,0.5,0,0.8,0s0.5,0,0.8,0c0.2,0,0.3,0,0.5,0s0.3,0,0.5,0c0.3,0,0.6,0,0.9,0
		c0.1,0,0.2,0,0.3,0c0.1,0,0.2,0,0.4,0c0.2,0,0.4,0,0.6,0s0.4,0,0.6,0c0.1,0,0.2,0,0.4,0c0.1,0,0.2,0,0.2,0s0.1,0,0.1-0.1
		s-0.1-0.3-0.1-0.4c-0.1-0.2-0.1-0.4-0.2-0.6c0-0.1-0.1-0.2-0.1-0.3s-0.1-0.3-0.1-0.4c-0.1-0.2-0.1-0.3-0.2-0.5s-0.1-0.3-0.2-0.5
		s-0.1-0.3-0.2-0.5s-0.2-0.5-0.3-0.7c-0.1-0.2-0.2-0.4-0.3-0.6c-0.1-0.3-0.3-0.5-0.4-0.8c-0.1-0.1-0.1-0.3-0.2-0.4
		c0-0.1,0-0.1,0.1-0.1c2.5-0.8,4.9-1.4,7.4-1.8c0.3,0,0.6-0.1,0.8-0.1c0.1,0,0.1,0,0.1,0.1C83,9,82.9,9.2,82.8,9.5
		c-0.1,0.2-0.1,0.3-0.2,0.5s-0.2,0.5-0.3,0.7c-0.1,0.3-0.2,0.5-0.3,0.8c-0.1,0.2-0.2,0.5-0.3,0.7c-0.1,0.3-0.2,0.6-0.3,0.9
		c-0.1,0.2-0.1,0.5-0.2,0.7s-0.1,0.4-0.2,0.6c0,0.1-0.1,0.3-0.1,0.4c0,0.1-0.1,0.3-0.1,0.4c0,0.1,0,0.1,0,0.2h0.1
		c0.3-0.1,0.6-0.3,0.9-0.4c0.2-0.1,0.3-0.2,0.5-0.2c0.2-0.1,0.5-0.2,0.7-0.3s0.4-0.2,0.5-0.3c0.2-0.1,0.5-0.2,0.7-0.3
		s0.3-0.2,0.5-0.3s0.5-0.2,0.7-0.4c0.3-0.1,0.5-0.3,0.7-0.4c0.3-0.1,0.6-0.3,0.8-0.4c0.1,0,0.2-0.1,0.2-0.1c0.1,0,0.1,0,0.1,0.1
		s0,0.2,0,0.3c0,2.6,0,5.3,0,7.9v0.1c0,0.1,0,0.1-0.1,0.1c-0.2-0.1-0.4-0.2-0.5-0.2c-0.3-0.1-0.6-0.3-1-0.4
		c-0.3-0.1-0.5-0.2-0.8-0.3c-0.2-0.1-0.4-0.1-0.6-0.2c-0.3-0.1-0.5-0.1-0.8-0.2s-0.6-0.1-0.9-0.2c-0.3,0-0.6-0.1-0.9-0.1
		c-0.2,0-0.5-0.1-0.7-0.1c-0.1,0-0.2,0-0.3,0c-0.1,0-0.1,0-0.1,0.1c0.1,0.2,0.1,0.4,0.2,0.6c0,0.2,0.1,0.3,0.1,0.5s0.1,0.3,0.1,0.5
		c0.1,0.2,0.1,0.4,0.2,0.6c0,0.1,0.1,0.3,0.2,0.4c0.1,0.2,0.1,0.4,0.2,0.6s0.1,0.4,0.2,0.6s0.2,0.4,0.3,0.6c0.1,0.3,0.2,0.5,0.4,0.8
		c0.1,0.2,0.2,0.5,0.4,0.7c0,0.1,0.1,0.2,0.1,0.2c0,0.1,0,0.1-0.1,0.1c-0.2,0-0.4,0.1-0.6,0.1c-2.5,0.4-5,0.9-7.4,1.8
		c-0.1,0-0.2,0.1-0.3,0.1v-0.1c0.1-0.2,0.1-0.3,0.2-0.5c0.1-0.3,0.2-0.6,0.4-0.9c0.1-0.4,0.3-0.7,0.4-1.1c0.1-0.3,0.3-0.7,0.4-1
		c0.1-0.1,0.1-0.3,0.1-0.4c0.1-0.2,0.2-0.5,0.2-0.7c0-0.1,0.1-0.3,0.1-0.4s0.1-0.2,0.1-0.3c0-0.2,0.1-0.4,0.1-0.5
		c0.1-0.2,0.1-0.4,0.2-0.7c0-0.1,0.1-0.3,0.1-0.4s0-0.1,0.1-0.2c0.1-0.2,0.1-0.2,0-0.1s-0.3,0.2-0.4,0.2c-0.2,0.1-0.3,0.2-0.5,0.3
		c-0.2,0.1-0.4,0.2-0.5,0.3c-0.1,0.1-0.3,0.2-0.4,0.3c-0.2,0.1-0.4,0.3-0.6,0.4s-0.4,0.3-0.6,0.4c-0.1,0.1-0.3,0.2-0.4,0.3
		c-0.3,0.2-0.6,0.5-0.9,0.8c-0.3,0.2-0.6,0.5-0.8,0.7c-0.3,0.3-0.7,0.6-1,0.9l0,0c-0.1,0.1-0.1,0.1-0.1,0s0-0.2,0-0.2
		c0-2.6,0-5.2,0-7.8c0-0.1,0-0.2,0-0.2C70.6,16.3,70.6,16.3,70.6,16.3z"/>
	<path class="st2" d="M173.2,44.1c-24.1,2.4-47.5-8.4-70.4-13.8c0-6.5,0-12.9,0-19.4c-3.6-1.7-5.4-2.5-9-3.8c0,7.3,0,14.6,0,21.9
		c-11.3-0.9-20.8,2.1-30.5,7.6c0,3.6,0,5.4,0,9c9.7-5.5,19.2-8.5,30.5-7.6c0,7.3,0,15.8,0,23.1c3.6-0.7,5.1-1,8.8-1.4
		c0-6.5,0.2-13.9,0.2-20.4c22.9,5.4,44.1,16.3,68.2,14c5.8-2.6,12-6.3,16.7-10.4C182.5,43.9,178.3,44.3,173.2,44.1z"/>
</g>
<g>
	<g>
		<path class="st3" d="M79.8,190.2h3.1v0.5h-3.7V185h3.6v0.5h-3v2h2.8v0.5h-2.8V190.2z"/>
	</g>
	<g>
		<path class="st3" d="M88.3,185.9c-0.3-0.4-0.6-0.6-1.1-0.6c-0.2,0-0.3,0-0.4,0.1c-0.1,0-0.3,0.1-0.4,0.2s-0.2,0.2-0.3,0.3
			s-0.1,0.3-0.1,0.5c0,0.3,0.1,0.5,0.2,0.6s0.3,0.3,0.5,0.4c0.2,0.1,0.5,0.2,0.7,0.2c0.3,0.1,0.5,0.2,0.7,0.3s0.4,0.3,0.5,0.5
			s0.2,0.5,0.2,0.8s-0.1,0.5-0.2,0.7s-0.3,0.4-0.4,0.5c-0.2,0.1-0.4,0.2-0.6,0.3s-0.5,0.1-0.7,0.1c-0.4,0-0.7-0.1-1-0.2
			c-0.3-0.1-0.6-0.4-0.8-0.7l0.5-0.4c0.1,0.2,0.3,0.4,0.5,0.5s0.5,0.2,0.8,0.2c0.1,0,0.3,0,0.4-0.1c0.1,0,0.3-0.1,0.4-0.2
			c0.1-0.1,0.2-0.2,0.3-0.3c0.1-0.1,0.1-0.3,0.1-0.4c0-0.2,0-0.4-0.1-0.5s-0.2-0.2-0.3-0.3c-0.1-0.1-0.3-0.2-0.5-0.2
			s-0.4-0.1-0.5-0.2s-0.4-0.1-0.5-0.2c-0.2-0.1-0.3-0.2-0.5-0.3c-0.1-0.1-0.2-0.3-0.3-0.4c-0.1-0.2-0.1-0.4-0.1-0.7s0.1-0.5,0.2-0.7
			s0.2-0.4,0.4-0.5c0.2-0.1,0.4-0.2,0.6-0.3s0.4-0.1,0.7-0.1c0.3,0,0.6,0.1,0.9,0.2s0.5,0.3,0.7,0.5L88.3,185.9z"/>
	</g>
	<g>
		<path class="st3" d="M93.6,190.7H93v-5.2h-1.9V185h4.4v0.5h-1.9V190.7z"/>
	</g>
	<g>
		<path class="st3" d="M97.9,190.3c0,0.1,0,0.2-0.1,0.3s-0.2,0.1-0.3,0.1s-0.2,0-0.3-0.1c-0.1-0.1-0.1-0.2-0.1-0.3s0-0.2,0.1-0.3
			s0.2-0.1,0.3-0.1s0.2,0,0.3,0.1C97.9,190.1,97.9,190.2,97.9,190.3z"/>
	</g>
	<g>
		<path class="st3" d="M106.9,190.7h-0.6v-5l-1,0.9l-0.4-0.4l1.5-1.2h0.5V190.7z"/>
	</g>
	<g>
		<path class="st3" d="M113.2,188.2L113.2,188.2c-0.1,0-0.2,0.1-0.4,0.1s-0.3,0-0.4,0c-0.2,0-0.5,0-0.7-0.1s-0.4-0.2-0.6-0.4
			s-0.3-0.3-0.4-0.6s-0.1-0.5-0.1-0.7c0-0.3,0-0.5,0.1-0.7s0.2-0.4,0.4-0.6c0.2-0.2,0.4-0.3,0.6-0.4c0.2-0.1,0.5-0.1,0.7-0.1
			c0.3,0,0.5,0,0.7,0.1s0.4,0.2,0.6,0.4s0.3,0.3,0.4,0.6c0.1,0.2,0.1,0.5,0.1,0.7c0,0.3,0,0.6-0.1,0.8s-0.2,0.5-0.4,0.7l-1.6,2.5
			h-0.7L113.2,188.2z M113.8,186.6c0-0.2,0-0.4-0.1-0.5c-0.1-0.2-0.1-0.3-0.3-0.4s-0.2-0.2-0.4-0.3c-0.2-0.1-0.3-0.1-0.5-0.1
			s-0.4,0-0.5,0.1c-0.2,0.1-0.3,0.1-0.4,0.3c-0.1,0.1-0.2,0.2-0.3,0.4s-0.1,0.3-0.1,0.5s0,0.4,0.1,0.5s0.2,0.3,0.3,0.4
			c0.1,0.1,0.2,0.2,0.4,0.3c0.2,0.1,0.3,0.1,0.5,0.1s0.4,0,0.5-0.1c0.2-0.1,0.3-0.1,0.4-0.3s0.2-0.2,0.3-0.4
			C113.8,187,113.8,186.8,113.8,186.6z"/>
	</g>
	<g>
		<path class="st3" d="M118.7,184.9c0.4,0,0.7,0.1,1,0.3s0.5,0.4,0.6,0.7s0.2,0.6,0.3,1c0,0.3,0.1,0.7,0.1,1s0,0.7-0.1,1
			s-0.1,0.7-0.3,1s-0.3,0.5-0.6,0.7c-0.3,0.2-0.6,0.3-1,0.3s-0.7-0.1-1-0.3s-0.5-0.4-0.6-0.7s-0.2-0.6-0.3-1c0-0.3-0.1-0.7-0.1-1
			s0-0.7,0.1-1c0-0.3,0.1-0.7,0.3-1s0.3-0.5,0.6-0.7S118.2,184.9,118.7,184.9z M118.7,185.4c-0.3,0-0.6,0.1-0.7,0.3
			c-0.2,0.2-0.3,0.4-0.4,0.6c-0.1,0.2-0.2,0.5-0.2,0.8s0,0.5,0,0.8c0,0.2,0,0.5,0,0.8s0.1,0.5,0.2,0.8c0.1,0.2,0.2,0.5,0.4,0.6
			c0.2,0.2,0.4,0.3,0.7,0.3c0.3,0,0.6-0.1,0.7-0.3c0.2-0.2,0.3-0.4,0.4-0.6c0.1-0.2,0.2-0.5,0.2-0.8s0-0.5,0-0.8c0-0.2,0-0.5,0-0.8
			s-0.1-0.5-0.2-0.8c-0.1-0.2-0.2-0.5-0.4-0.6C119.2,185.5,119,185.4,118.7,185.4z"/>
	</g>
	<g>
		<path class="st3" d="M124.1,187.4L124.1,187.4c0.1,0,0.2-0.1,0.4-0.1s0.3,0,0.4,0c0.2,0,0.5,0,0.7,0.1s0.4,0.2,0.6,0.4
			s0.3,0.3,0.4,0.6s0.1,0.5,0.1,0.7c0,0.3,0,0.5-0.1,0.7s-0.2,0.4-0.4,0.6c-0.2,0.2-0.4,0.3-0.6,0.4c-0.2,0.1-0.5,0.1-0.7,0.1
			c-0.3,0-0.5,0-0.7-0.1s-0.4-0.2-0.6-0.4s-0.3-0.3-0.4-0.6c-0.1-0.2-0.1-0.5-0.1-0.7c0-0.3,0-0.6,0.1-0.8s0.2-0.5,0.4-0.7l1.6-2.5
			h0.7L124.1,187.4z M123.5,189c0,0.2,0,0.4,0.1,0.5s0.2,0.3,0.3,0.4c0.1,0.1,0.2,0.2,0.4,0.3c0.2,0.1,0.3,0.1,0.5,0.1
			s0.4,0,0.5-0.1c0.2-0.1,0.3-0.1,0.4-0.3c0.1-0.1,0.2-0.2,0.3-0.4c0.1-0.2,0.1-0.3,0.1-0.5s0-0.4-0.1-0.5c-0.1-0.2-0.1-0.3-0.3-0.4
			s-0.2-0.2-0.4-0.3c-0.2-0.1-0.3-0.1-0.5-0.1s-0.4,0-0.5,0.1c-0.2,0.1-0.3,0.1-0.4,0.3c-0.1,0.1-0.2,0.2-0.3,0.4
			S123.5,188.8,123.5,189z"/>
	</g>
</g>
<g>
	<g>
		<path class="st3" d="M7,150.7c0.2,0.4,0.5,0.6,0.9,0.8s0.7,0.3,1.1,0.3c0.2,0,0.4,0,0.7-0.1c0.2-0.1,0.4-0.2,0.6-0.3
			c0.2-0.1,0.3-0.3,0.5-0.5c0.1-0.2,0.2-0.4,0.2-0.7c0-0.4-0.1-0.7-0.4-0.8c-0.2-0.2-0.5-0.4-0.9-0.5c-0.3-0.1-0.7-0.3-1.1-0.4
			c-0.4-0.1-0.8-0.3-1.1-0.5c-0.3-0.2-0.6-0.5-0.9-0.9c-0.2-0.4-0.4-0.9-0.4-1.5c0-0.3,0.1-0.6,0.2-0.9c0.1-0.3,0.3-0.6,0.6-0.9
			c0.3-0.3,0.6-0.5,1-0.7c0.4-0.2,0.9-0.3,1.5-0.3c0.5,0,1,0.1,1.5,0.2c0.5,0.1,0.9,0.4,1.3,0.9l-1.1,1c-0.2-0.3-0.4-0.5-0.7-0.6
			c-0.3-0.2-0.6-0.2-1-0.2s-0.7,0-0.9,0.1s-0.4,0.2-0.6,0.4c-0.1,0.1-0.2,0.3-0.3,0.5c-0.1,0.2-0.1,0.3-0.1,0.5
			c0,0.4,0.1,0.7,0.4,0.9c0.2,0.2,0.5,0.4,0.9,0.5c0.3,0.1,0.7,0.3,1.1,0.4c0.4,0.1,0.8,0.3,1.1,0.5s0.6,0.5,0.9,0.8
			s0.4,0.8,0.4,1.4c0,0.5-0.1,0.9-0.3,1.2c-0.2,0.4-0.4,0.7-0.7,0.9c-0.3,0.3-0.6,0.4-1.1,0.6C9.9,152.9,9.4,153,9,153
			c-0.6,0-1.2-0.1-1.7-0.3s-1-0.5-1.3-1L7,150.7z"/>
	</g>
	<g>
		<path class="st3" d="M21.3,143.2h1.2l4.1,9.6h-1.5l-1-2.4h-4.6l-0.9,2.4h-1.5L21.3,143.2z M23.6,149.2l-1.8-4.4l0,0l-1.8,4.4H23.6
			z"/>
	</g>
	<g>
		<path class="st3" d="M31.9,143.2h1.3v9.6h-1.3C31.9,152.8,31.9,143.2,31.9,143.2z"/>
	</g>
	<g>
		<path class="st3" d="M39.7,143.2H41v8.4h4.4v1.2h-5.7V143.2z"/>
	</g>
	<g>
		<path class="st3" d="M50.8,143.2h1.3v9.6h-1.3V143.2z"/>
	</g>
	<g>
		<path class="st3" d="M58.6,143.2h1.7l5.3,7.9l0,0v-7.9h1.3v9.6h-1.7l-5.3-7.9l0,0v7.9h-1.3C58.6,152.8,58.6,143.2,58.6,143.2z"/>
	</g>
	<g>
		<path class="st3" d="M81.6,147.4v4.7c-0.2,0.1-0.5,0.3-0.8,0.4c-0.3,0.1-0.6,0.2-0.9,0.3s-0.6,0.1-1,0.2c-0.3,0-0.6,0.1-0.9,0.1
			c-0.8,0-1.5-0.1-2.2-0.4c-0.6-0.3-1.2-0.6-1.6-1.1s-0.8-1-1-1.6s-0.3-1.3-0.3-1.9c0-0.7,0.1-1.4,0.4-2s0.6-1.1,1-1.6
			s1-0.8,1.6-1.1s1.3-0.4,2-0.4c0.9,0,1.6,0.1,2.2,0.3s1,0.5,1.4,0.9l-0.9,1c-0.4-0.4-0.8-0.6-1.3-0.8c-0.4-0.1-0.9-0.2-1.4-0.2
			c-0.6,0-1,0.1-1.5,0.3c-0.4,0.2-0.8,0.5-1.1,0.8s-0.6,0.7-0.7,1.2c-0.2,0.5-0.3,1-0.3,1.5s0.1,1,0.3,1.5c0.2,0.5,0.5,0.9,0.8,1.2
			s0.7,0.6,1.2,0.8s0.9,0.3,1.5,0.3c0.5,0,0.9,0,1.3-0.1s0.8-0.2,1-0.4v-2.7h-2.1v-1.2H81.6z"/>
	</g>
	<g>
		<path class="st3" d="M96.1,150.7c0.2,0.4,0.5,0.6,0.9,0.8s0.7,0.3,1.1,0.3c0.2,0,0.4,0,0.7-0.1c0.2-0.1,0.4-0.2,0.6-0.3
			s0.3-0.3,0.5-0.5c0.1-0.2,0.2-0.4,0.2-0.7c0-0.4-0.1-0.7-0.4-0.8c-0.2-0.2-0.5-0.4-0.9-0.5c-0.3-0.1-0.7-0.3-1.1-0.4
			c-0.4-0.1-0.8-0.3-1.1-0.5c-0.3-0.2-0.6-0.5-0.9-0.9c-0.2-0.4-0.4-0.9-0.4-1.5c0-0.3,0.1-0.6,0.2-0.9c0.1-0.3,0.3-0.6,0.6-0.9
			c0.3-0.3,0.6-0.5,1-0.7s0.9-0.3,1.5-0.3c0.5,0,1,0.1,1.5,0.2c0.5,0.1,0.9,0.4,1.3,0.9l-1.1,1c-0.2-0.3-0.4-0.5-0.7-0.6
			c-0.3-0.2-0.6-0.2-1-0.2s-0.7,0-0.9,0.1c-0.2,0.1-0.4,0.2-0.6,0.4c-0.1,0.1-0.2,0.3-0.3,0.5c-0.1,0.2-0.1,0.3-0.1,0.5
			c0,0.4,0.1,0.7,0.4,0.9c0.2,0.2,0.5,0.4,0.9,0.5c0.3,0.1,0.7,0.3,1.1,0.4c0.4,0.1,0.8,0.3,1.1,0.5c0.3,0.2,0.6,0.5,0.9,0.8
			s0.4,0.8,0.4,1.4c0,0.5-0.1,0.9-0.3,1.2c-0.2,0.4-0.4,0.7-0.7,0.9c-0.3,0.3-0.6,0.4-1.1,0.6c-0.4,0.1-0.8,0.2-1.3,0.2
			c-0.6,0-1.2-0.1-1.7-0.3s-1-0.5-1.3-1L96.1,150.7z"/>
	</g>
	<g>
		<path class="st3" d="M117.3,152.7h-5.5c-0.7,0-1.3-0.1-1.9-0.4c-0.6-0.2-1.1-0.6-1.6-1s-0.8-0.9-1.1-1.5c-0.3-0.6-0.4-1.3-0.4-2
			s0.1-1.4,0.4-2s0.6-1.1,1-1.6c0.4-0.4,1-0.8,1.6-1s1.3-0.4,2-0.4s1.3,0.1,1.9,0.4s1.1,0.6,1.5,1s0.8,0.9,1,1.5
			c0.3,0.6,0.4,1.2,0.4,1.9c0,0.4,0,0.8-0.1,1.2s-0.2,0.8-0.4,1.1c-0.2,0.3-0.4,0.6-0.7,0.9c-0.3,0.3-0.6,0.5-0.9,0.6l0,0h2.8
			C117.3,151.4,117.3,152.7,117.3,152.7z M111.7,151.5c0.5,0,1-0.1,1.4-0.3s0.8-0.5,1.1-0.8s0.6-0.7,0.7-1.2s0.3-1,0.3-1.5
			s-0.1-1-0.3-1.4c-0.2-0.4-0.4-0.8-0.7-1.2c-0.3-0.3-0.7-0.6-1.1-0.8s-0.9-0.3-1.4-0.3s-1,0.1-1.4,0.3s-0.8,0.4-1.1,0.8
			c-0.3,0.3-0.6,0.7-0.7,1.1c-0.2,0.4-0.3,0.9-0.3,1.4s0.1,1,0.3,1.5s0.4,0.9,0.7,1.2c0.3,0.3,0.7,0.6,1.1,0.8
			C110.7,151.4,111.2,151.5,111.7,151.5z"/>
	</g>
	<g>
		<path class="st3" d="M123.8,143.2v5.9c0,0.3,0,0.6,0.1,0.9c0.1,0.3,0.2,0.6,0.4,0.9c0.2,0.3,0.4,0.5,0.7,0.7
			c0.3,0.2,0.7,0.3,1.1,0.3s0.8-0.1,1.1-0.3c0.3-0.2,0.6-0.4,0.7-0.7c0.2-0.3,0.3-0.6,0.4-0.9s0.1-0.6,0.1-0.9v-5.9h1.3v6.1
			c0,0.6-0.1,1.1-0.3,1.5c-0.2,0.5-0.5,0.9-0.8,1.2s-0.7,0.6-1.2,0.8s-0.9,0.3-1.5,0.3s-1-0.1-1.5-0.3s-0.8-0.4-1.2-0.8
			c-0.3-0.3-0.6-0.7-0.8-1.2c-0.2-0.5-0.3-1-0.3-1.5v-6.1H123.8z"/>
	</g>
	<g>
		<path class="st3" d="M139.3,143.2h1.2l4.1,9.6h-1.5l-1-2.4h-4.6l-0.9,2.4h-1.5L139.3,143.2z M141.6,149.2l-1.8-4.4l0,0l-1.8,4.4
			H141.6z"/>
	</g>
	<g>
		<path class="st3" d="M149.7,143.2h3.3c0.7,0,1.3,0.1,1.8,0.2c0.5,0.2,1,0.4,1.3,0.6c0.4,0.3,0.7,0.6,0.9,0.9
			c0.2,0.3,0.4,0.7,0.6,1c0.1,0.4,0.2,0.7,0.3,1.1s0.1,0.7,0.1,1c0,0.6-0.1,1.2-0.3,1.8s-0.6,1.1-1,1.5s-1,0.8-1.6,1.1
			c-0.7,0.3-1.4,0.4-2.3,0.4h-3.1V143.2z M151,151.5h1.6c0.5,0,1.1-0.1,1.6-0.2c0.5-0.1,0.9-0.4,1.3-0.7s0.7-0.7,0.9-1.1
			c0.2-0.4,0.3-1,0.3-1.6c0-0.3,0-0.7-0.1-1.1c-0.1-0.4-0.3-0.8-0.6-1.2s-0.7-0.7-1.1-0.9c-0.5-0.3-1.1-0.4-1.9-0.4h-2V151.5z"/>
	</g>
	<g>
		<path class="st3" d="M164,143.2h3.4c0.6,0,1.1,0.1,1.5,0.3s0.7,0.4,0.9,0.6s0.4,0.5,0.5,0.9c0.1,0.3,0.1,0.6,0.1,0.9
			c0,0.3-0.1,0.6-0.2,0.9s-0.3,0.5-0.5,0.8c-0.2,0.2-0.5,0.4-0.7,0.6c-0.3,0.2-0.6,0.3-1,0.3l2.7,4.4h-1.6l-2.4-4.2h-1.4v4.2H164
			V143.2z M165.3,147.4h1.7c0.3,0,0.5,0,0.8-0.1c0.2,0,0.5-0.1,0.7-0.2s0.3-0.3,0.5-0.5s0.2-0.5,0.2-0.8s-0.1-0.6-0.2-0.8
			s-0.3-0.4-0.5-0.5s-0.4-0.2-0.7-0.2c-0.2,0-0.5-0.1-0.8-0.1h-1.7V147.4z"/>
	</g>
	<g>
		<path class="st3" d="M180.7,153c-0.7,0-1.4-0.1-2-0.4c-0.6-0.3-1.1-0.6-1.6-1.1s-0.8-1-1-1.6s-0.4-1.3-0.4-2s0.1-1.4,0.4-2
			s0.6-1.1,1-1.6s1-0.8,1.6-1.1s1.3-0.4,2-0.4s1.4,0.1,2,0.4s1.1,0.6,1.6,1.1c0.4,0.5,0.8,1,1,1.6s0.4,1.3,0.4,2s-0.1,1.4-0.4,2
			s-0.6,1.1-1,1.6s-1,0.8-1.6,1.1C182.1,152.9,181.4,153,180.7,153z M180.7,151.8c0.5,0,1-0.1,1.5-0.3s0.8-0.5,1.1-0.8
			s0.6-0.7,0.7-1.2c0.2-0.5,0.3-1,0.3-1.5s-0.1-1-0.3-1.5s-0.4-0.9-0.7-1.2s-0.7-0.6-1.1-0.8c-0.4-0.2-0.9-0.3-1.5-0.3
			s-1,0.1-1.5,0.3c-0.4,0.2-0.8,0.5-1.1,0.8s-0.6,0.7-0.7,1.2c-0.2,0.5-0.3,1-0.3,1.5s0.1,1,0.3,1.5s0.4,0.9,0.7,1.2
			s0.7,0.6,1.1,0.8S180.1,151.8,180.7,151.8z"/>
	</g>
	<g>
		<path class="st3" d="M191.6,143.2h1.7l5.3,7.9l0,0v-7.9h1.3v9.6h-1.7l-5.3-7.9l0,0v7.9h-1.3V143.2z"/>
	</g>
</g>
<g>
	<g>
		<g>
			<path class="st3" d="M3.6,116.4c0-4.4,0-5.1-0.1-6s-0.3-1.4-1.2-1.6c-0.2-0.1-0.7-0.1-0.9-0.1c-0.1,0-0.2-0.1-0.2-0.2
				c0-0.2,0.1-0.2,0.4-0.2c1.3,0,3,0.1,3.2,0.1c0.3,0,2.1-0.1,3.8-0.1c2.8,0,7.9-0.3,11.2,3.2c1.4,1.5,2.7,3.8,2.7,7.1
				c0,3.5-1.5,6.2-3,7.9c-1.2,1.3-3.7,3.2-8.5,3.2c-1.2,0-2.7-0.1-3.9-0.2c-1.2-0.1-2.2-0.2-2.3-0.2c-0.1,0-0.5,0-1.1,0
				s-1.2,0.1-1.6,0.1c-0.3,0-0.4-0.1-0.4-0.2c0-0.1,0.1-0.2,0.2-0.2c0.3,0,0.6-0.1,0.8-0.1c0.6-0.1,0.7-0.7,0.8-1.5
				c0.1-1.2,0.1-3.4,0.1-6.1C3.6,121.3,3.6,116.4,3.6,116.4z M6,119.4c0,3,0,5.5,0.1,6.1c0,0.7,0.1,1.8,0.3,2.1
				c0.4,0.5,1.5,1.1,4.7,1.1c2.6,0,5-0.9,6.6-2.6c1.5-1.4,2.2-4.1,2.2-6.7c0-3.5-1.5-5.8-2.7-7c-2.6-2.8-5.8-3.2-9.1-3.2
				c-0.6,0-1.6,0.1-1.8,0.2S6,109.7,6,110c0,0.9,0,3.8,0,5.9V119.4z"/>
		</g>
		<g>
			<path class="st3" d="M11,129.9c-1,0-2.3-0.1-3.9-0.2c-0.6,0-1.2-0.1-1.6-0.1c-0.4,0-0.6,0-0.7,0s-0.5,0-1.1,0c-0.3,0-0.6,0-0.9,0
				s-0.5,0-0.7,0c-0.5,0-0.7-0.2-0.7-0.5c0-0.2,0.1-0.4,0.5-0.4c0.2,0,0.5,0,0.8-0.1c0.4-0.1,0.5-0.5,0.6-1.3c0.1-1.2,0.1-3.4,0.1-6
				v-4.9c0-4.3,0-5.1-0.1-6s-0.3-1.2-1-1.4c-0.2-0.1-0.7-0.1-0.9-0.1c-0.3,0-0.5-0.2-0.5-0.4c0-0.3,0.2-0.5,0.7-0.5
				c0.9,0,2.2,0,2.8,0.1c0.2,0,0.3,0,0.4,0s0.3,0,0.7,0c0.7,0,1.9-0.1,3.1-0.1h0.5c2.9,0,7.6,0,10.8,3.3c1.3,1.3,2.8,3.6,2.8,7.3
				c0,3-1.1,6-3.1,8C17.6,128.7,14.6,129.9,11,129.9z M4.8,129L4.8,129c0.1,0,0.3,0,0.8,0.1c0.4,0,1,0.1,1.6,0.1
				c1.6,0.1,2.9,0.2,3.9,0.2c3.5,0,6.3-1.1,8.3-3.1c0.9-0.9,2.9-3.5,2.9-7.7c0-3.4-1.4-5.7-2.6-6.9c-3-3.1-7.7-3.1-10.5-3.1H8.7
				c-1.2,0-2.4,0-3.1,0.1c-0.3,0-0.6,0-0.7,0c0,0-0.2,0-0.4,0c-0.4,0-1.1,0-1.9-0.1c1,0.2,1.2,0.9,1.3,1.8c0.1,0.9,0.1,1.7,0.1,6
				v4.9c0,2.7,0,4.9-0.1,6.1c-0.1,0.6-0.2,1.5-0.9,1.7c0.3,0,0.6,0,0.9,0C4.3,129,4.8,129,4.8,129z M11.1,128.9
				c-2.8,0-4.4-0.4-4.9-1.2c-0.2-0.3-0.3-1.1-0.4-2.3c0-0.5-0.1-3-0.1-6.1v-3.5c0-2.1,0-5,0-5.9c0-0.4,0.1-0.6,0.5-0.8
				c0.3-0.2,1.5-0.2,1.9-0.2c3.7,0,6.8,0.5,9.3,3.2c1,1.1,2.7,3.4,2.7,7.2c0,2.8-0.9,5.5-2.3,6.8C16.2,127.9,13.7,128.9,11.1,128.9z
				 M8.2,109.5c-0.6,0-1.5,0.1-1.7,0.2s-0.2,0.1-0.2,0.3c0,1,0,3.8,0,5.9v3.5c0,3,0,5.5,0.1,6c0,1.1,0.1,1.8,0.3,2
				c0.3,0.5,1.4,1,4.5,1c2.5,0,4.9-0.9,6.5-2.5c1.3-1.3,2.2-3.8,2.2-6.5c0-3.6-1.6-5.8-2.6-6.9C14.7,110,11.8,109.5,8.2,109.5z"/>
		</g>
	</g>
	<g>
		<g>
			<path class="st3" d="M37.3,116.4c0-4.4,0-5.1-0.1-6s-0.3-1.4-1.2-1.6c-0.2-0.1-0.7-0.1-0.9-0.1c-0.1,0-0.2-0.1-0.2-0.2
				c0-0.2,0.1-0.2,0.4-0.2c0.6,0,1.4,0,2,0l1.1,0.1c0.2,0,5.7,0,6.4,0c0.5,0,1-0.1,1.2-0.1c0.1,0,0.3-0.1,0.4-0.1
				c0.1,0,0.1,0.1,0.1,0.3c0,0.2-0.1,0.5-0.2,1.3c0,0.3-0.1,1.5-0.1,1.8c0,0.1-0.1,0.3-0.2,0.3c-0.2,0-0.2-0.1-0.2-0.4
				c0-0.2,0-0.7-0.2-1c-0.2-0.4-0.5-0.8-2-0.9c-0.5-0.1-3.5-0.1-3.8-0.1c-0.1,0-0.2,0.1-0.2,0.3v7.7c0,0.2,0,0.3,0.2,0.3
				c0.4,0,3.8,0,4.4-0.1c0.7-0.1,1.1-0.1,1.3-0.4c0.2-0.2,0.3-0.4,0.4-0.4c0.1,0,0.1,0.1,0.1,0.2s-0.1,0.6-0.2,1.6
				c-0.1,0.6-0.1,1.6-0.1,1.8c0,0.2,0,0.5-0.2,0.5c-0.1,0-0.2-0.1-0.2-0.3c0-0.3,0-0.6-0.1-0.9c-0.1-0.4-0.4-0.9-1.5-1
				c-0.8-0.1-3.5-0.1-4-0.1c-0.1,0-0.2,0.1-0.2,0.2v2.5c0,0.9,0,4.2,0,4.8c0.1,1.9,0.5,2.3,3.2,2.3c0.7,0,2,0,2.7-0.3s1.1-0.9,1.3-2
				c0.1-0.3,0.1-0.4,0.3-0.4s0.2,0.2,0.2,0.4c0,0.2-0.2,2.1-0.4,2.7c-0.2,0.7-0.4,0.7-1.5,0.7c-2.1,0-3.6-0.1-4.7-0.1
				c-1.1-0.1-1.8-0.1-2.2-0.1c-0.1,0-0.5,0-1.1,0s-1.2,0.1-1.6,0.1c-0.3,0-0.4-0.1-0.4-0.2c0-0.1,0.1-0.2,0.2-0.2
				c0.3,0,0.6-0.1,0.8-0.1c0.6-0.1,0.7-0.7,0.8-1.5c0.1-1.2,0.1-3.4,0.1-6.1v-5H37.3z"/>
		</g>
		<g>
			<path class="st3" d="M45.4,129.7c-1.7,0-3.1,0-4.1-0.1h-0.6c-1-0.1-1.7-0.1-2.2-0.1c-0.1,0-0.5,0-1.1,0c-0.3,0-0.6,0-0.9,0
				c-0.3,0-0.5,0-0.7,0c-0.5,0-0.7-0.2-0.7-0.5c0-0.2,0.1-0.4,0.5-0.4c0.2,0,0.5,0,0.8-0.1c0.4-0.1,0.5-0.5,0.6-1.3
				c0.1-1.2,0.1-3.4,0.1-6v-4.9c0-4.3,0-5.1-0.1-6s-0.3-1.2-1-1.4c-0.2-0.1-0.7-0.1-0.9-0.1c-0.3,0-0.5-0.2-0.5-0.4
				c0-0.3,0.2-0.5,0.7-0.5c0.7,0,1.4,0,2,0l1.1,0.1c0.2,0,5.7,0,6.4,0c0.5,0,0.9-0.1,1.1-0.1H46c0.1,0,0.2-0.1,0.3-0.1
				s0.4,0,0.4,0.5c0,0.1,0,0.2-0.1,0.4c0,0.2-0.1,0.5-0.2,1c0,0.1,0,0.3,0,0.6c0,0.5-0.1,1.1-0.1,1.3c-0.1,0.4-0.3,0.5-0.4,0.5
				c-0.1,0-0.5-0.1-0.5-0.6c0-0.2,0-0.6-0.1-0.9s-0.3-0.6-1.8-0.8c-0.4,0-3.1-0.1-3.7-0.1l0,0v7.7l0,0c1.8,0,3.9,0,4.3-0.1
				c0.7-0.1,1-0.1,1.1-0.3l0,0c0.2-0.2,0.3-0.4,0.6-0.4c0.1,0,0.4,0,0.4,0.5c0,0.1,0,0.2-0.1,0.4c0,0.3-0.1,0.7-0.2,1.2
				c-0.1,0.6-0.1,1.6-0.1,1.8c0,0.2,0,0.8-0.4,0.8c-0.2,0-0.4-0.2-0.4-0.5s0-0.5-0.1-0.8c-0.1-0.2-0.2-0.7-1.2-0.8
				c-0.7-0.1-3.3-0.1-3.9-0.1v3.6c0,1.3,0,3.1,0,3.5c0.1,1.7,0.3,2,3,2c0.7,0,1.9,0,2.6-0.3c0.6-0.3,0.9-0.7,1.1-1.8
				c0-0.2,0.1-0.6,0.5-0.6s0.4,0.5,0.4,0.7c0,0.3-0.2,2.2-0.4,2.8C46.9,129.7,46.5,129.7,45.4,129.7z M38.5,129L38.5,129
				c0.5,0,1.2,0,2.2,0.1h0.6c1.1,0,2.4,0.1,4.1,0.1c1.1,0,1.1,0,1.3-0.5c0.1-0.4,0.2-1.3,0.3-1.9c-0.2,0.8-0.6,1.3-1.3,1.5
				c-0.8,0.3-2,0.3-2.8,0.3c-2.8,0-3.4-0.4-3.5-2.5c0-0.4,0-2.2,0-3.6v-3.7c0-0.3,0.2-0.4,0.4-0.4c0.4,0,3.2,0.1,4,0.1
				c1.2,0.1,1.5,0.7,1.7,1.2v0.1c0-0.4,0.1-0.9,0.1-1.2c0.1-0.6,0.1-1,0.2-1.3v-0.1c0,0,0,0,0,0.1l0,0c-0.3,0.4-0.8,0.4-1.5,0.5
				c-0.6,0.1-3.6,0.1-4.5,0.1c-0.3,0-0.4-0.2-0.4-0.5v-7.7c0-0.5,0.3-0.5,0.4-0.5c0.2,0,3.3,0,3.9,0.1c1.5,0.2,1.9,0.5,2.2,1.1
				c0.1,0.2,0.1,0.4,0.2,0.6c0-0.2,0-0.5,0.1-0.8c0-0.3,0-0.5,0-0.6c0.1-0.5,0.1-0.8,0.2-1c0-0.1,0-0.2,0-0.2
				c-0.1,0-0.1,0.1-0.2,0.1c-0.2,0.1-0.7,0.1-1.2,0.1c-0.6,0-5.8,0-6.4,0l-1.2-0.1c-0.3,0-0.7,0-1.1,0c1,0.2,1.2,0.8,1.3,1.8
				c0.1,0.9,0.1,1.7,0.1,6v4.9c0,2.7,0,4.9-0.1,6.1c-0.1,0.6-0.2,1.5-0.9,1.7c0.3,0,0.6,0,0.9,0C37.9,129,38.4,129,38.5,129z"/>
		</g>
	</g>
	<g>
		<g>
			<path class="st3" d="M62.7,116.4c0-4.4,0-5.1-0.1-6s-0.3-1.4-1.2-1.6c-0.2-0.1-0.7-0.1-0.9-0.1c-0.1,0-0.2-0.1-0.2-0.2
				c0-0.2,0.1-0.2,0.4-0.2c1.3,0,3,0.1,3.2,0.1c0.3,0,2.4-0.1,3.3-0.1c1.8,0,3.6,0.2,5.1,1.2c0.7,0.5,1.9,1.9,1.9,3.8
				c0,2.1-0.9,4.1-3.4,6.4c2.3,2.9,4.2,5.4,5.8,7.1c1.5,1.6,2.7,1.9,3.4,2c0.5,0.1,0.9,0.1,1.1,0.1c0.1,0,0.3,0.1,0.3,0.2
				c0,0.2-0.2,0.2-0.7,0.2h-2c-1.6,0-2.3-0.1-3-0.5c-1.2-0.6-2.2-2-3.8-4.1c-1.2-1.5-2.5-3.4-3-4.1c-0.1-0.1-0.2-0.2-0.4-0.2
				l-3.4-0.1c-0.1,0-0.2,0.1-0.2,0.2v0.7c0,2.7,0,4.9,0.1,6.1c0.1,0.8,0.3,1.4,1.1,1.5c0.4,0.1,1,0.1,1.3,0.1c0.2,0,0.2,0.1,0.2,0.2
				c0,0.1-0.1,0.2-0.4,0.2c-1.5,0-3.3-0.1-3.4-0.1c0,0-1.8,0.1-2.6,0.1c-0.3,0-0.4-0.1-0.4-0.2c0-0.1,0.1-0.2,0.2-0.2
				c0.3,0,0.6-0.1,0.8-0.1c0.6-0.1,0.7-0.7,0.8-1.5c0.1-1.2,0.1-3.4,0.1-6.1V116.4z M64.9,118.8c0,0.1,0.1,0.3,0.2,0.3
				c0.4,0.3,1.7,0.4,2.9,0.4c0.7,0,1.5-0.1,2.1-0.5c1-0.7,1.7-2.2,1.7-4.3c0-3.5-1.8-5.6-4.8-5.6c-0.8,0-1.6,0.1-1.9,0.2
				c-0.1,0.1-0.2,0.2-0.2,0.3C64.9,109.6,64.9,118.8,64.9,118.8z"/>
		</g>
		<g>
			<path class="st3" d="M80.7,129.6h-2c-1.6,0-2.3-0.1-3.1-0.6c-1.2-0.6-2.1-1.8-3.5-3.7l-0.4-0.5c-0.7-0.9-1.4-1.9-2-2.7
				c-0.4-0.6-0.8-1.1-1-1.4c-0.1-0.1-0.1-0.1-0.2-0.1l-3.4-0.1v0.6c0,2.6,0,4.9,0.1,6c0.1,0.8,0.2,1.2,0.9,1.3
				c0.4,0.1,1,0.1,1.2,0.1c0.3,0,0.5,0.2,0.5,0.4c0,0.1-0.1,0.5-0.7,0.5c-1.2,0-2.5,0-3.1-0.1c-0.2,0-0.3,0-0.3,0h-0.1
				c-0.4,0-1.8,0.1-2.5,0.1c-0.5,0-0.7-0.2-0.7-0.5c0-0.2,0.1-0.4,0.5-0.4c0.2,0,0.5,0,0.8-0.1c0.4-0.1,0.5-0.5,0.6-1.3
				c0.1-1.2,0.1-3.4,0.1-6v-4.9c0-4.3,0-5.1-0.1-6s-0.3-1.2-1-1.4c-0.2-0.1-0.7-0.1-0.9-0.1c-0.3,0-0.5-0.2-0.5-0.4
				c0-0.3,0.2-0.5,0.7-0.5c0.9,0,2.2,0,2.8,0.1c0.2,0,0.3,0,0.4,0c0.1,0,0.5,0,0.9,0c0.8,0,1.8-0.1,2.4-0.1c1.7,0,3.7,0.2,5.2,1.3
				c0.8,0.5,2,2,2,4c0,2.3-1,4.4-3.3,6.5l0.7,0.9c1.9,2.4,3.6,4.6,5,6.1s2.5,1.8,3.3,1.9c0.5,0.1,0.9,0.1,1,0.1
				c0.3,0,0.5,0.2,0.5,0.4C81.6,129.6,81,129.6,80.7,129.6z M65.1,120.1l3.4,0.1c0.2,0,0.4,0.1,0.5,0.2c0.3,0.3,0.6,0.8,1.1,1.5
				c0.6,0.8,1.3,1.8,2,2.7l0.4,0.5c1.4,1.8,2.3,3,3.3,3.6c0.7,0.4,1.4,0.5,2.9,0.5h1.1c-0.8-0.1-2-0.5-3.4-2.1
				c-1.4-1.5-3.1-3.6-5-6.1l-1-1.2l0.2-0.2c2.2-2.1,3.3-4.1,3.3-6.3c0-1.8-1.1-3.1-1.8-3.6c-1.5-1-3.3-1.2-5-1.2
				c-0.5,0-1.6,0-2.3,0.1c-0.5,0-0.8,0-1,0c0,0-0.2,0-0.4,0c-0.4,0-1.1,0-1.9-0.1c1,0.2,1.2,0.9,1.3,1.8s0.1,1.7,0.1,6v4.9
				c0,2.7,0,4.9-0.1,6.1c-0.1,0.7-0.2,1.6-1,1.7c0.5,0,1.1,0,1.8-0.1h0.1c0,0,0.2,0,0.3,0c0.4,0,1.2,0,2,0.1c-1-0.2-1.2-1-1.2-1.7
				c-0.1-1.2-0.1-3.3-0.1-6.1v-0.7C64.7,120.3,64.8,120.1,65.1,120.1z M68,119.8c-1.1,0-2.5-0.2-3.1-0.5c-0.2-0.1-0.3-0.3-0.3-0.5
				v-9.1c0-0.3,0.1-0.5,0.4-0.6c0.4-0.1,1.2-0.2,2-0.2c3.1,0,5.1,2.2,5.1,5.8c0,2-0.7,3.7-1.8,4.5C69.5,119.8,68.6,119.8,68,119.8z
				 M67,109.4c-0.8,0-1.5,0.1-1.8,0.2c0,0,0,0,0,0.1v9.1c0,0.1,0,0.1,0.1,0.1c0.3,0.2,1.5,0.4,2.8,0.4c0.5,0,1.3,0,1.9-0.5
				c1-0.7,1.6-2.2,1.6-4.1C71.6,111.4,69.9,109.4,67,109.4z"/>
		</g>
	</g>
	<g>
		<g>
			<path class="st3" d="M109.3,125.5L109.3,125.5c0.9-2.6,3.4-10.7,4.4-14.2c0.3-1,0.3-1.4,0.3-1.8c0-0.5-0.3-0.8-1.6-0.8
				c-0.1,0-0.3-0.1-0.3-0.2s0.1-0.2,0.5-0.2c1.4,0,2.6,0.1,2.8,0.1c0.2,0,1.4-0.1,2.3-0.1c0.3,0,0.4,0.1,0.4,0.2s-0.1,0.2-0.3,0.2
				c-0.1,0-0.6,0-0.9,0.1c-0.8,0.3-1.3,1.5-1.8,3c-1.2,3.5-4,12.4-5.1,15.5c-0.7,2.1-0.9,2.4-1.2,2.4c-0.3,0-0.4-0.4-0.8-1.5
				l-5.5-15.5h-0.1c-1,2.7-4.8,12.9-5.8,15.5c-0.4,1.2-0.6,1.5-0.9,1.5s-0.4-0.3-1-2.2l-5-16.5c-0.4-1.5-0.8-1.9-1.5-2.2
				c-0.4-0.1-1.1-0.2-1.3-0.2c-0.1,0-0.3,0-0.3-0.2c0-0.1,0.2-0.2,0.4-0.2c1.5,0,3,0.1,3.3,0.1s1.5-0.1,2.9-0.1
				c0.4,0,0.5,0.1,0.5,0.2c0,0.2-0.1,0.2-0.3,0.2c-0.2,0-0.8,0-1.1,0.2c-0.2,0.1-0.4,0.3-0.4,0.7s0.3,1.3,0.5,2.6
				c0.4,1.8,3.3,12,3.7,13.5h0.1l5.9-15.9c0.4-1.1,0.5-1.3,0.7-1.3s0.4,0.4,0.7,1.3L109.3,125.5z"/>
		</g>
		<g>
			<path class="st3" d="M108.8,130c-0.5,0-0.7-0.5-1.1-1.6l-5.3-14.9l-0.2,0.5c-1.4,3.6-4.5,12.1-5.4,14.4c-0.4,1.2-0.6,1.6-1.2,1.6
				c-0.5,0-0.7-0.5-1.2-2.4l-5-16.5c-0.4-1.4-0.8-1.8-1.4-2c-0.3-0.1-0.9-0.2-1.2-0.2c-0.5,0-0.5-0.3-0.5-0.4c0-0.2,0.1-0.4,0.7-0.4
				c1,0,2,0,2.7,0.1c0.3,0,0.5,0,0.6,0s0.2,0,0.5,0c0.5,0,1.4-0.1,2.4-0.1c0.5,0,0.8,0.1,0.8,0.4c0,0.1,0,0.4-0.5,0.4
				c-0.2,0-0.7,0-1,0.1c-0.1,0-0.2,0.2-0.2,0.4c0,0.3,0.2,0.9,0.3,1.7l0.2,0.8c0.3,1.1,1.5,5.6,3.6,12.8l5.7-15.3
				c0.4-1.2,0.6-1.4,0.9-1.4c0.4,0,0.6,0.4,0.9,1.5l5.4,15.3c0.3-0.9,0.7-2.3,1.2-3.8c1-3.4,2.3-7.5,3-9.8c0.3-1,0.3-1.4,0.3-1.7
				c0-0.2,0-0.6-1.3-0.6c-0.3,0-0.5-0.2-0.5-0.4c0-0.4,0.5-0.4,0.7-0.4c1,0,1.9,0,2.4,0.1c0.2,0,0.4,0,0.4,0c0.1,0,0.2,0,0.4,0
				c0.5,0,1.2-0.1,1.8-0.1c0.6,0,0.6,0.3,0.6,0.4c0,0.3-0.2,0.5-0.5,0.5c-0.1,0-0.6,0-0.9,0.1c-0.7,0.3-1.1,1.4-1.7,2.9
				c-0.6,1.8-1.7,5-2.7,8c-1,3.1-1.9,6-2.5,7.5C109.5,129.6,109.3,130,108.8,130z M88.1,108.5c0.1,0,0.1,0,0.2,0.1
				c0.8,0.3,1.2,0.9,1.7,2.3l5,16.5c0.2,0.8,0.6,1.9,0.7,2c0.2,0,0.3-0.3,0.7-1.3c0.9-2.3,4.1-10.8,5.4-14.4l0.5-1.2h0.4l0.1,0.2
				l5.5,15.5c0.2,0.4,0.5,1.3,0.6,1.3c0.2,0,0.5-1,0.9-2.2c0.5-1.5,1.5-4.4,2.5-7.5s2-6.2,2.7-8c0.6-1.6,1-2.8,2-3.2h0.1
				c-0.4,0-0.7,0-1,0c-0.2,0-0.4,0-0.5,0s-0.2,0-0.5,0c-0.4,0-0.9,0-1.5-0.1c0.4,0.1,0.8,0.4,0.8,1c0,0.4,0,0.8-0.3,1.9
				c-0.6,2.3-1.9,6.5-3,9.8c-0.6,1.9-1.1,3.5-1.3,4.4l-0.1,0.2h-0.5l-5.6-16c-0.1-0.3-0.3-0.9-0.5-1.1c-0.1,0.2-0.4,0.9-0.5,1.1
				l-6,16.1h-0.4l-0.1-0.2l-0.1-0.2c-2.1-7.5-3.4-12.2-3.7-13.3l-0.2-0.8c-0.2-0.9-0.4-1.5-0.4-1.9c0-0.5,0.3-0.8,0.5-0.9
				c0.1,0,0.1-0.1,0.2-0.1c-0.7,0-1.2,0-1.6,0.1c-0.2,0-0.4,0-0.5,0s-0.3,0-0.6,0C89.4,108.6,88.8,108.5,88.1,108.5z"/>
		</g>
	</g>
	<g>
		<g>
			<path class="st3" d="M131,116.4c0-4.4,0-5.1-0.1-6s-0.3-1.4-1.2-1.6c-0.2-0.1-0.7-0.1-0.9-0.1c-0.1,0-0.2-0.1-0.2-0.2
				c0-0.2,0.1-0.2,0.4-0.2c0.6,0,1.4,0,2,0l1.1,0.1c0.2,0,5.7,0,6.4,0c0.5,0,1-0.1,1.2-0.1c0.1,0,0.3-0.1,0.4-0.1
				c0.1,0,0.1,0.1,0.1,0.3c0,0.2-0.1,0.5-0.2,1.3c0,0.3-0.1,1.5-0.1,1.8c0,0.1-0.1,0.3-0.2,0.3c-0.2,0-0.2-0.1-0.2-0.4
				c0-0.2,0-0.7-0.2-1c-0.2-0.4-0.5-0.8-2-0.9c-0.5-0.1-3.5-0.1-3.8-0.1c-0.1,0-0.2,0.1-0.2,0.3v7.7c0,0.2,0,0.3,0.2,0.3
				c0.4,0,3.8,0,4.4-0.1c0.7-0.1,1.1-0.1,1.3-0.4c0.2-0.2,0.3-0.4,0.4-0.4c0.1,0,0.1,0.1,0.1,0.2s-0.1,0.6-0.2,1.6
				c-0.1,0.6-0.1,1.6-0.1,1.8c0,0.2,0,0.5-0.2,0.5c-0.1,0-0.2-0.1-0.2-0.3c0-0.3,0-0.6-0.1-0.9c-0.1-0.4-0.4-0.9-1.5-1
				c-0.8-0.1-3.5-0.1-4-0.1c-0.1,0-0.2,0.1-0.2,0.2v2.5c0,0.9,0,4.2,0,4.8c0.1,1.9,0.5,2.3,3.2,2.3c0.7,0,2,0,2.7-0.3s1.1-0.9,1.3-2
				c0.1-0.3,0.1-0.4,0.3-0.4s0.2,0.2,0.2,0.4c0,0.2-0.2,2.1-0.4,2.7c-0.2,0.7-0.4,0.7-1.5,0.7c-2.1,0-3.6-0.1-4.7-0.1
				c-1.1-0.1-1.8-0.1-2.2-0.1c-0.1,0-0.5,0-1.1,0s-1.2,0.1-1.6,0.1c-0.3,0-0.4-0.1-0.4-0.2c0-0.1,0.1-0.2,0.2-0.2
				c0.3,0,0.6-0.1,0.8-0.1c0.6-0.1,0.7-0.7,0.8-1.5c0.1-1.2,0.1-3.4,0.1-6.1L131,116.4L131,116.4z"/>
		</g>
		<g>
			<path class="st3" d="M139.1,129.7c-1.7,0-3.1,0-4.1-0.1h-0.6c-1-0.1-1.7-0.1-2.2-0.1c-0.1,0-0.5,0-1.1,0c-0.3,0-0.6,0-0.9,0
				c-0.3,0-0.5,0-0.7,0c-0.5,0-0.7-0.2-0.7-0.5c0-0.2,0.1-0.4,0.5-0.4c0.2,0,0.5,0,0.8-0.1c0.4-0.1,0.5-0.5,0.6-1.3
				c0.1-1.2,0.1-3.4,0.1-6v-4.9c0-4.3,0-5.1-0.1-6s-0.3-1.2-1-1.4c-0.2-0.1-0.7-0.1-0.9-0.1c-0.3,0-0.5-0.2-0.5-0.4
				c0-0.3,0.2-0.5,0.7-0.5c0.7,0,1.4,0,2,0l1.1,0.1c0.2,0,5.7,0,6.4,0c0.5,0,0.9-0.1,1.1-0.1h0.1c0.1,0,0.2-0.1,0.3-0.1
				s0.4,0,0.4,0.5c0,0.1,0,0.2-0.1,0.4c0,0.2-0.1,0.5-0.2,1c0,0.1,0,0.3,0,0.6c0,0.5-0.1,1.1-0.1,1.3c-0.1,0.4-0.3,0.5-0.4,0.5
				c-0.1,0-0.5-0.1-0.5-0.6c0-0.2,0-0.6-0.1-0.9s-0.3-0.6-1.8-0.8c-0.4,0-3.1-0.1-3.7-0.1l0,0v7.7l0,0c1.8,0,3.9,0,4.3-0.1
				c0.7-0.1,1-0.1,1.1-0.3l0,0c0.2-0.2,0.3-0.4,0.6-0.4c0.1,0,0.4,0,0.4,0.5c0,0.1,0,0.2-0.1,0.4c0,0.3-0.1,0.7-0.2,1.2
				c-0.1,0.6-0.1,1.6-0.1,1.8c0,0.2,0,0.8-0.4,0.8c-0.2,0-0.4-0.2-0.4-0.5s0-0.5-0.1-0.8c-0.1-0.2-0.2-0.7-1.2-0.8
				c-0.7-0.1-3.3-0.1-3.9-0.1v3.6c0,1.3,0,3.1,0,3.5c0.1,1.7,0.3,2,3,2c0.7,0,1.9,0,2.6-0.3c0.6-0.3,0.9-0.7,1.1-1.8
				c0-0.2,0.1-0.6,0.5-0.6s0.4,0.5,0.4,0.7c0,0.3-0.2,2.2-0.4,2.8C140.6,129.7,140.2,129.7,139.1,129.7z M132.2,129L132.2,129
				c0.5,0,1.2,0,2.2,0.1h0.6c1.1,0,2.4,0.1,4.1,0.1c1.1,0,1.1,0,1.3-0.5c0.1-0.4,0.2-1.3,0.3-1.9c-0.2,0.8-0.6,1.3-1.3,1.5
				c-0.8,0.3-2,0.3-2.8,0.3c-2.8,0-3.4-0.4-3.5-2.5c0-0.4,0-2.2,0-3.6v-3.7c0-0.3,0.2-0.4,0.4-0.4c0.4,0,3.2,0.1,4,0.1
				c1.2,0.1,1.5,0.7,1.7,1.2v0.1c0-0.4,0.1-0.9,0.1-1.2c0.1-0.6,0.1-1,0.2-1.3v-0.1c0,0,0,0,0,0.1l0,0c-0.3,0.4-0.8,0.4-1.5,0.5
				c-0.6,0.1-3.6,0.1-4.5,0.1c-0.3,0-0.4-0.2-0.4-0.5v-7.7c0-0.5,0.3-0.5,0.4-0.5c0.2,0,3.3,0,3.9,0.1c1.5,0.2,1.9,0.5,2.2,1.1
				c0.1,0.2,0.1,0.4,0.2,0.6c0-0.2,0-0.5,0.1-0.8c0-0.3,0-0.5,0-0.6c0.1-0.5,0.1-0.8,0.2-1c0-0.1,0-0.2,0-0.2
				c-0.1,0-0.1,0.1-0.2,0.1c-0.2,0.1-0.7,0.1-1.2,0.1c-0.6,0-5.8,0-6.4,0l-1.2-0.1c-0.3,0-0.7,0-1.1,0c1,0.2,1.2,0.8,1.3,1.8
				c0.1,0.9,0.1,1.7,0.1,6v4.9c0,2.7,0,4.9-0.1,6.1c-0.1,0.6-0.2,1.5-0.9,1.7c0.3,0,0.6,0,0.9,0C131.7,129,132.2,129,132.2,129z"/>
		</g>
	</g>
	<g>
		<g>
			<path class="st3" d="M157.2,125.6c0.1,2.3,0.3,3,1.1,3.2c0.5,0.1,1.1,0.2,1.4,0.2c0.1,0,0.2,0.1,0.2,0.2c0,0.2-0.2,0.2-0.5,0.2
				c-1.6,0-2.7-0.1-3-0.1s-1.4,0.1-2.7,0.1c-0.3,0-0.4,0-0.4-0.2c0-0.1,0.1-0.2,0.2-0.2c0.2,0,0.7,0,1.1-0.2c0.7-0.2,0.8-1,0.8-3.5
				v-16c0-1.1,0.1-1.4,0.3-1.4s0.7,0.6,1,0.9c0.4,0.5,4.6,5,8.9,9.6c2.8,3,5.8,6.4,6.7,7.3l-0.3-14.2c0-1.8-0.2-2.4-1.1-2.7
				c-0.5-0.1-1.1-0.1-1.4-0.1c-0.2,0-0.2-0.1-0.2-0.2c0-0.2,0.2-0.2,0.6-0.2c1.3,0,2.6,0.1,2.9,0.1c0.3,0,1.2-0.1,2.4-0.1
				c0.3,0,0.5,0,0.5,0.2c0,0.1-0.1,0.2-0.3,0.2c-0.1,0-0.3,0-0.7,0.1c-0.9,0.2-1,0.8-1,2.5l-0.1,16.3c0,1.8-0.1,2-0.3,2
				s-0.6-0.3-2-1.8c-0.3-0.3-4.3-4.4-7.3-7.6c-3.2-3.5-6.4-7-7.3-8L157.2,125.6z"/>
		</g>
		<g>
			<path class="st3" d="M173.4,129.8c-0.3,0-0.6-0.3-2.2-1.9c-0.3-0.3-4.3-4.4-7.3-7.6c-2.8-3-5.5-6.1-6.8-7.5l0.3,12.7
				c0.1,2.3,0.4,2.8,0.9,3c0.6,0.2,1.2,0.2,1.3,0.2c0.3,0,0.5,0.2,0.5,0.4c0,0.5-0.6,0.5-0.8,0.5c-1.1,0-2,0-2.6-0.1
				c-0.2,0-0.3,0-0.4,0c-0.1,0-0.2,0-0.5,0c-0.5,0-1.3,0.1-2.2,0.1c-0.2,0-0.7,0-0.7-0.5c0-0.2,0.1-0.4,0.5-0.4c0.3,0,0.7,0,1.1-0.2
				c0.5-0.1,0.7-0.9,0.7-3.3v-16c0-1,0-1.6,0.6-1.6c0.3,0,0.5,0.3,0.9,0.7c0.1,0.1,0.2,0.2,0.2,0.3c0.4,0.5,4.6,5,8.9,9.6
				c1.5,1.6,3,3.2,4.2,4.6c0.8,0.9,1.5,1.7,2,2.2l-0.3-13.5c0-1.9-0.2-2.2-0.9-2.4c-0.5-0.1-1.1-0.1-1.3-0.1c-0.3,0-0.5-0.2-0.5-0.4
				c0-0.4,0.5-0.4,0.8-0.4c0.8,0,1.7,0,2.3,0.1c0.3,0,0.5,0,0.6,0s0.3,0,0.5,0c0.4,0,1.1-0.1,1.9-0.1c0.2,0,0.8,0,0.8,0.4
				c0,0.2-0.2,0.4-0.6,0.4c-0.1,0-0.3,0-0.6,0.1c-0.7,0.1-0.8,0.5-0.8,2.2l-0.1,16.3C173.9,129.4,173.9,129.8,173.4,129.8z
				 M156.5,111.5l0.5,0.5c0.9,1.1,4.1,4.6,7.3,8c3,3.2,7,7.3,7.3,7.5c0.8,0.8,1.6,1.6,1.8,1.7c0.1-0.3,0.1-1.2,0.1-1.7l0.1-16.3
				c0-1.5,0.1-2.4,1.1-2.7c-0.5,0-0.9,0-1.2,0.1c-0.2,0-0.4,0-0.5,0s-0.3,0-0.6,0c-0.4,0-0.8,0-1.3,0h0.1c1.1,0.3,1.3,1.1,1.3,2.9
				l0.3,14.8l-0.4-0.5c-0.4-0.4-1.3-1.4-2.5-2.7c-1.3-1.4-2.8-3.1-4.2-4.6c-4.3-4.6-8.5-9.1-8.9-9.6c-0.1-0.1-0.2-0.2-0.2-0.3
				c-0.1-0.2-0.4-0.4-0.5-0.5c0,0.1-0.1,0.4-0.1,1.1v16c0,2.4-0.1,3.5-1,3.8c-0.1,0-0.1,0-0.2,0.1c0.6,0,1.1,0,1.4-0.1
				c0.2,0,0.4,0,0.5,0s0.2,0,0.4,0c0.4,0,0.9,0,1.6,0.1c-0.1,0-0.2,0-0.2-0.1c-0.9-0.3-1.2-1.1-1.3-3.5L156.5,111.5z"/>
		</g>
	</g>
	<g>
		<g>
			<path class="st3" d="M197.1,121.3c0,2.7,0,4.9,0.1,6.1c0.1,0.8,0.3,1.4,1.1,1.5c0.4,0.1,1,0.1,1.3,0.1c0.2,0,0.2,0.1,0.2,0.2
				c0,0.1-0.1,0.2-0.4,0.2c-1.5,0-3.3-0.1-3.4-0.1c-0.1,0-1.9,0.1-2.7,0.1c-0.3,0-0.4-0.1-0.4-0.2c0-0.1,0.1-0.2,0.2-0.2
				c0.3,0,0.6-0.1,0.8-0.1c0.6-0.1,0.7-0.7,0.8-1.5c0.1-1.2,0.1-3.4,0.1-6.1v-11.8l-4.1,0.1c-1.7,0-2.4,0.2-2.8,0.9
				c-0.3,0.5-0.4,0.7-0.5,0.9c-0.1,0.2-0.2,0.3-0.3,0.3s-0.1-0.1-0.1-0.3c0-0.3,0.6-2.7,0.6-2.9c0.1-0.2,0.2-0.5,0.3-0.5
				c0.2,0,0.5,0.3,1.2,0.3c0.8,0.1,1.9,0.1,2.2,0.1h10.5c0.9,0,1.5-0.1,2-0.1c0.4-0.1,0.7-0.1,0.8-0.1s0.1,0.2,0.1,0.3
				c0,0.8-0.1,2.8-0.1,3.1c0,0.3-0.1,0.4-0.2,0.4c-0.1,0-0.2-0.1-0.2-0.5v-0.3c-0.1-0.8-0.8-1.5-3.4-1.5l-3.5-0.1v11.7H197.1z"/>
		</g>
		<g>
			<path class="st3" d="M199.4,129.6c-1.2,0-2.5,0-3.1-0.1c-0.2,0-0.3,0-0.3,0s-0.2,0-0.5,0c-0.6,0-1.7,0.1-2.3,0.1
				c-0.5,0-0.7-0.2-0.7-0.5c0-0.2,0.1-0.4,0.5-0.4c0.2,0,0.5,0,0.8-0.1c0.4-0.1,0.5-0.5,0.6-1.3c0.1-1.2,0.1-3.4,0.1-6v-11.5
				l-3.9,0.1c-1.7,0-2.3,0.2-2.6,0.8c-0.3,0.5-0.4,0.6-0.5,0.8c0,0.1-0.2,0.4-0.5,0.4c-0.2,0-0.4-0.1-0.4-0.5c0-0.3,0.6-2.9,0.6-3
				c0.1-0.4,0.2-0.7,0.5-0.7c0.1,0,0.2,0,0.4,0.1s0.4,0.2,0.9,0.2c0.8,0.1,1.8,0.1,2.2,0.1h10.5c0.8,0,1.5,0,1.9-0.1
				c0.2,0,0.4-0.1,0.5-0.1s0.2,0,0.3,0c0.4,0,0.4,0.4,0.4,0.6c0,0.5,0,1.5-0.1,2.2c0,0.4,0,0.8,0,0.9c0,0.6-0.4,0.6-0.4,0.6
				c-0.4,0-0.5-0.4-0.5-0.7v-0.3c-0.1-0.6-0.5-1.3-3.2-1.3l-3.3-0.1v11.5c0,2.6,0,4.9,0.1,6c0.1,0.8,0.2,1.2,0.9,1.3
				c0.4,0.1,1,0.1,1.2,0.1c0.3,0,0.5,0.2,0.5,0.4C200.1,129.3,200,129.6,199.4,129.6z M195.1,109.2v12.1c0,2.7,0,4.9-0.1,6.1
				c-0.1,0.7-0.2,1.6-1,1.7c0.5,0,1.2,0,1.6-0.1c0.3,0,0.4,0,0.5,0c0,0,0.2,0,0.3,0c0.4,0,1.2,0,2,0.1c-1-0.2-1.2-1-1.2-1.7
				c-0.1-1.2-0.1-3.3-0.1-6.1v-12.1l3.8,0.1c2.3,0,3.4,0.5,3.6,1.5c0-0.1,0-0.2,0-0.2c0-0.7,0.1-1.6,0.1-2.2c0,0,0,0,0-0.1
				c0,0,0,0-0.1,0s-0.3,0.1-0.6,0.1c-0.5,0.1-1.2,0.1-2,0.1h-10.5c-0.3,0-1.4-0.1-2.2-0.1c-0.5,0-0.8-0.2-1-0.3h-0.1
				c0,0.1-0.1,0.2-0.1,0.3c-0.1,0.3-0.4,1.7-0.5,2.5c0.1-0.2,0.2-0.3,0.4-0.6c0.5-0.8,1.4-1,3.1-1L195.1,109.2z M187.2,111.4
				L187.2,111.4L187.2,111.4z"/>
		</g>
	</g>
</g>
</svg>
