<svg id="Layer_1" data-name="Layer 1" xmlns="http://www.w3.org/2000/svg" xmlns:xlink="http://www.w3.org/1999/xlink" viewBox="0 0 386.25 71.32"><defs><style>.cls-1{fill:none;}.cls-2{clip-path:url(#clip-path);}.cls-3{fill:#062752;}</style><clipPath id="clip-path" transform="translate(-6.94 -5.28)"><rect class="cls-1" x="6.95" y="5.28" width="386.25" height="71.32"/></clipPath></defs><g class="cls-2"><path class="cls-3" d="M91.83,40.2H85.28l.15.17v7.16l-.15.19h6.57c3,0,4.37-1.33,4.37-3.72s-1.47-3.8-4.39-3.8m-.43-8.5H85.28l.15.19v6.58l-.15.15H91.4c2.86,0,4-1.52,4-3.49,0-2.32-1.44-3.43-4-3.43m.45,17.61H83.79V30.11h7.86c3.76,0,5.45,2.39,5.45,5a4.41,4.41,0,0,1-2.35,4v.05A4.71,4.71,0,0,1,97.93,44c0,3.22-2,5.31-6.08,5.31" transform="translate(-6.94 -5.28)"/><path class="cls-3" d="M85.58,38.47H91.4c2.47,0,3.84-1.19,3.84-3.34S94,31.84,91.4,31.84H85.58Zm5.82.29H84.89l.4-.35V31.94L85,31.55H91.4c2.7,0,4.13,1.24,4.13,3.58S94,38.76,91.4,38.76m-5.82,8.81h6.27c2.84,0,4.22-1.17,4.22-3.57s-1.51-3.65-4.24-3.65H85.58Zm6.27.3H85l.33-.39v-7l-.36-.37h6.9c2.92,0,4.53,1.4,4.53,3.94s-1.51,3.87-4.51,3.87m-7.91,1.29h7.91c3.82,0,5.93-1.83,5.93-5.16a4.56,4.56,0,0,0-3.08-4.65l-.09,0v-.24l.08,0A4.25,4.25,0,0,0,97,35.13c0-3.6-2.86-4.88-5.3-4.88H83.94Zm7.91.29H83.64V30h8c4.13,0,5.59,2.79,5.59,5.17a4.56,4.56,0,0,1-2.19,4,4.84,4.84,0,0,1,3,4.83c0,3.47-2.27,5.45-6.23,5.45" transform="translate(-6.94 -5.28)"/></g><rect class="cls-3" x="93.35" y="24.12" width="1.49" height="19.91"/><path class="cls-3" d="M100.44,49.16h1.2V29.54h-1.2Zm1.49.29h-1.78V29.25h1.78Z" transform="translate(-6.94 -5.28)"/><g class="cls-2"><path class="cls-3" d="M116.91,34.37,110.66,51c-.82,2.13-2.28,3.39-3.9,3.39a5.06,5.06,0,0,1-2.39-.5V52.46a5.38,5.38,0,0,0,2.12.42c1.42,0,2.43-1.37,3.24-3.57l-6.26-14.94h1.71l4.6,11.33.65,2.07h0l.68-2.07,4-11.33Z" transform="translate(-6.94 -5.28)"/><path class="cls-3" d="M104.52,53.81a5.06,5.06,0,0,0,2.24.44c1.57,0,3-1.23,3.76-3.29l6.18-16.44h-1.39l-4,11.23-.71,2.16h-.26l-.68-2.16-4.56-11.23h-1.39l6.2,14.78,0,.06c-.92,2.5-2,3.67-3.38,3.67a5.51,5.51,0,0,1-2-.35Zm2.24.74a5.25,5.25,0,0,1-2.45-.52l-.08,0V52.23l.2.09a5.05,5.05,0,0,0,2.06.42c1.22,0,2.23-1.12,3.08-3.43l-6.32-15.08h2l4.63,11.42.54,1.71.56-1.7,4.09-11.43h2l-6.34,16.83c-.83,2.19-2.33,3.49-4,3.49" transform="translate(-6.94 -5.28)"/><path class="cls-3" d="M126.26,48.12a5.68,5.68,0,0,1-3.67,1.42c-2.21,0-3.62-1.54-3.62-4.43V36l.09-.17h-1.8V34.37h1.8l-.09-.16V31.63l1.51-.86v3.44l-.1.16h4.49v1.45h-4.49l.1.17v9c0,1.92.81,3,2.22,3A3.47,3.47,0,0,0,125.2,47Z" transform="translate(-6.94 -5.28)"/><path class="cls-3" d="M119.11,36v9.09c0,2.72,1.27,4.29,3.48,4.29a5.58,5.58,0,0,0,3.46-1.29l-.86-.92a3.53,3.53,0,0,1-2.49,1c-1.51,0-2.37-1.15-2.37-3.15V36l-.19-.35h4.58V34.52h-4.58l.19-.35V31l-1.22.69v2.46l.19.35h-1.9v1.15h1.9Zm3.48,13.67c-2.36,0-3.77-1.71-3.77-4.58V36h-1.71V34.23h1.71V31.54l1.8-1v3.71H125V36h-4.39V45c0,1.84.74,2.86,2.08,2.86a3.29,3.29,0,0,0,2.4-1l.11-.1,1.27,1.37-.13.1a5.84,5.84,0,0,1-3.76,1.45" transform="translate(-6.94 -5.28)"/><path class="cls-3" d="M139.73,49.31h-1.51V40c0-2.4-.79-4.34-4.23-4.34a4.36,4.36,0,0,0-4.64,4.64v9h-1.51V29.4h1.51v7.25h0a5.68,5.68,0,0,1,4.84-2.51c3.83,0,5.5,2.23,5.5,5.52Z" transform="translate(-6.94 -5.28)"/><path class="cls-3" d="M138.37,49.16h1.21v-9.5c0-4.44-2.91-5.38-5.35-5.38a5.54,5.54,0,0,0-4.71,2.45l-.05.07h-.27V29.54H128V49.16h1.21V40.32A4.49,4.49,0,0,1,134,35.53c3.92,0,4.38,2.56,4.38,4.49Zm1.51.29h-1.81V40c0-2-.46-4.2-4.08-4.2a4.22,4.22,0,0,0-4.49,4.5v9.13h-1.81V29.25h1.81v7A5.84,5.84,0,0,1,134.23,34c3.64,0,5.65,2,5.65,5.67Z" transform="translate(-6.94 -5.28)"/><path class="cls-3" d="M153.65,41.11l-.16-.17c-.23-3.22-1.91-5.26-4.8-5.26s-4.57,2-4.93,5.26l-.15.17ZM155,42.58H143.58l.16.14c.38,3.53,2,5.28,5,5.28a5.55,5.55,0,0,0,3.9-1.56l1.06,1.14a6.83,6.83,0,0,1-5,2c-4.5,0-6.57-3.2-6.57-7.58,0-4.62,2.39-7.82,6.46-7.82,4.3,0,6.37,3.24,6.37,7.82a5.82,5.82,0,0,1,0,.62" transform="translate(-6.94 -5.28)"/><path class="cls-3" d="M143.91,41h9.43c-.23-3.26-1.92-5.12-4.65-5.12-3.48,0-4.52,2.79-4.78,5.13Zm10.08.29H143.26l.36-.38c.4-3.44,2.2-5.34,5.07-5.34s4.69,2,4.94,5.35Zm-5.32-7c-3.84,0-6.31,3-6.31,7.68s2.34,7.44,6.42,7.44a6.74,6.74,0,0,0,4.75-1.83l-.86-.92a5.66,5.66,0,0,1-3.89,1.5c-3,0-4.78-1.8-5.18-5.36l-.4-.36h11.69c0-.14,0-.27,0-.47,0-4.88-2.27-7.68-6.23-7.68m.11,15.41c-4.27,0-6.72-2.82-6.72-7.73s2.6-8,6.61-8,6.52,3,6.52,8a6,6,0,0,1,0,.63l0,.13H143.89c.38,3.46,2,5.14,4.89,5.14a5.38,5.38,0,0,0,3.8-1.53l.1-.1,1.26,1.35-.1.1a7,7,0,0,1-5.06,2" transform="translate(-6.94 -5.28)"/><path class="cls-3" d="M169.84,31.48a2.81,2.81,0,0,0-2.79,2.89,3.38,3.38,0,0,0,.7,2c.36.52,1.37,1.73,1.37,1.73l0,.19c1.92-1,3.45-1.82,3.45-3.91a2.81,2.81,0,0,0-2.75-2.87m4.23,14.91L168.85,40l0-.22c-.77.46-1.06.62-1.49.91a11,11,0,0,0-1.21.92,3.88,3.88,0,0,0-1.26,2.87c0,2.46,2.22,3.48,5,3.48a6.09,6.09,0,0,0,4.41-1.51Zm4.28,2.92h-1.89l-1.15-1.4,0-.19a7.88,7.88,0,0,1-5.45,1.87c-4,0-6.67-1.9-6.67-5.07,0-2.44,2-4.2,4.87-5.69l-.23-.07s-.85-1-1.06-1.35a4.74,4.74,0,0,1-.6-.93,4.44,4.44,0,0,1,3.67-6.56,4.31,4.31,0,0,1,4.27,4.38c0,2.35-1.5,3.61-4.09,5l.22.11c.45.55,4.55,5.53,5,6.05l.07.19a4.29,4.29,0,0,0,.75-2.23h1.64a6.09,6.09,0,0,1-1.44,3.39l.11,0Z" transform="translate(-6.94 -5.28)"/><path class="cls-3" d="M169.84,31.63a2.67,2.67,0,0,0-2.64,2.74,3.28,3.28,0,0,0,.67,1.89c.35.51,1.35,1.71,1.36,1.72l0,.05c1.73-.9,3.18-1.72,3.18-3.68a2.67,2.67,0,0,0-2.6-2.72M169,38.49l0-.36c-.17-.2-1-1.23-1.35-1.71a3.5,3.5,0,0,1-.73-2.05,2.92,2.92,0,1,1,5.84,0c0,2.21-1.64,3.06-3.53,4Zm-.31,1.58-.13.07c-.53.31-.8.47-1.16.71a13.5,13.5,0,0,0-1.2.91A3.71,3.71,0,0,0,165,44.52c0,3,3.38,3.34,4.83,3.34A6,6,0,0,0,174,46.52l0,0Zm1.13,8.08c-3.21,0-5.12-1.36-5.12-3.63a4,4,0,0,1,1.3-3,12.36,12.36,0,0,1,1.24-.95c.37-.24.64-.4,1.17-.71l.52-.31,0,.4,5.18,6.29.34.18-.16.14a6.2,6.2,0,0,1-4.51,1.56m-2-9.52.52.17-.32.16c-3.26,1.71-4.78,3.47-4.78,5.56,0,3,2.56,4.92,6.52,4.92a7.71,7.71,0,0,0,5.35-1.83l.18-.17.1.4,1.08,1.32H178l-1.85-2.22-.26-.11.12-.16a6.08,6.08,0,0,0,1.4-3.14h-1.34a4.73,4.73,0,0,1-.76,2.16l-.17.25-.16-.45c-.47-.6-4.37-5.35-4.91-6l-.45-.23.25-.13c2.54-1.33,4-2.55,4-4.83a4.1,4.1,0,1,0-7.68,2.11,4.49,4.49,0,0,0,.6.91c.18.27.88,1.13,1,1.31m1.94,11.11c-4.14,0-6.81-2.05-6.81-5.22,0-2.15,1.48-4,4.66-5.67-.08-.1-.86-1.06-1.06-1.36a4.94,4.94,0,0,1-.62-.94,4.45,4.45,0,1,1,8.23-2.25c0,2.36-1.43,3.62-3.93,5l0,0c.46.55,4.4,5.34,4.93,6a4,4,0,0,0,.58-1.91v-.15h1.94v.15a6.21,6.21,0,0,1-1.36,3.34l2.27,2.73h-2.28L175.19,48a8.14,8.14,0,0,1-5.37,1.75" transform="translate(-6.94 -5.28)"/></g><polygon class="cls-3" points="199.31 24.83 194.38 44.03 192.38 44.03 188.95 30.47 188.48 27.93 188.46 27.93 187.96 30.45 184.54 44.03 182.51 44.03 177.61 24.83 179.29 24.83 183.06 39.74 183.53 42.44 183.55 42.44 184 39.74 187.83 24.83 189.11 24.83 192.94 39.86 193.39 42.44 193.41 42.44 193.86 39.83 197.62 24.83 199.31 24.83"/><path class="cls-3" d="M199.43,49.16h1.78l4.85-18.91h-1.38L201,45.15l-.47,2.72h-.25l0-.13-.45-2.58-3.8-14.91h-1.05l-3.8,14.8-.47,2.82h-.25l0-.13-.48-2.7-3.73-14.79h-1.38l4.83,18.91h1.8l3.39-13.47.52-2.62h.24l0,.12.47,2.53Zm2,.29h-2.23l0-.11-3.42-13.55-.35-1.85-.36,1.81-3.45,13.7h-2.26l0-.11-5-19.38h2l0,.11L190.14,45l.34,1.93L190.8,45l3.86-15h1.51L200,45.1l.31,1.82.32-1.83L204.45,30h2Z" transform="translate(-6.94 -5.28)"/><g class="cls-2"><path class="cls-3" d="M217.29,41.82c-.4,0-1.19-.1-1.66-.1-.63,0-1.38,0-2.16.05a13,13,0,0,0-2.39.33c-1.51.38-2.86,1.21-2.86,3,0,2.39,2.5,2.94,4,2.94s4.91-.57,4.91-3V42Zm1.35,7.49h-1.5V47.67h0a6.2,6.2,0,0,1-4.86,1.9c-2.84,0-5.52-1.19-5.52-4.48,0-4.51,5.2-4.74,8.8-4.74a13.68,13.68,0,0,1,1.78.14l-.15-.17v-.8c0-2.92-2-3.84-4.19-3.84a6.62,6.62,0,0,0-4.44,1.44l-1-1.11A7.88,7.88,0,0,1,213,34.16c3,0,5.69,1.23,5.69,5.33Z" transform="translate(-6.94 -5.28)"/><path class="cls-3" d="M215.63,41.87c-.65,0-1.37,0-2.16.05a12.47,12.47,0,0,0-2.35.32c-1.83.46-2.75,1.42-2.75,2.85,0,2.65,3.21,2.79,3.86,2.79,1.65,0,4.76-.59,4.76-2.82V41.93c-.43,0-1-.06-1.36-.06m-3.4,6.3c-2,0-4.16-.81-4.16-3.08,0-1.58,1-2.64,3-3.13a13.27,13.27,0,0,1,2.42-.34c.79,0,1.52,0,2.17,0,.46,0,1.25,0,1.68.1l.29,0-.32.33v3c0,2.46-3.3,3.11-5.05,3.11m3.28-7.68c-4.49,0-8.65.56-8.65,4.6s3.75,4.33,5.37,4.33A6.1,6.1,0,0,0,217,47.58l0-.06h.26v1.64h1.22V39.49c0-4.28-3-5.18-5.55-5.18A7.8,7.8,0,0,0,207.69,36l.83.9A7,7,0,0,1,213,35.53c1.62,0,4.33.52,4.33,4v.74l.43.45-.44-.08a13.8,13.8,0,0,0-1.76-.14m-3.28,9.22c-3.55,0-5.67-1.73-5.67-4.62,0-4.89,6.05-4.89,8.95-4.89a13.29,13.29,0,0,1,1.48.1v-.78c0-3.22-2.53-3.69-4-3.69a6.6,6.6,0,0,0-4.34,1.4l-.11.1L207.26,36l.12-.1A8,8,0,0,1,213,34c3.77,0,5.84,2,5.84,5.48v10H217V48a6.53,6.53,0,0,1-4.76,1.71" transform="translate(-6.94 -5.28)"/><path class="cls-3" d="M229.57,48.12a5.7,5.7,0,0,1-3.67,1.42c-2.21,0-3.63-1.54-3.63-4.43V36l.09-.17h-1.8V34.37h1.8l-.09-.16V31.63l1.51-.86v3.44l-.09.16h4.48v1.45h-4.48l.09.17v9c0,1.92.81,3,2.23,3a3.48,3.48,0,0,0,2.5-1.05Z" transform="translate(-6.94 -5.28)"/><path class="cls-3" d="M222.42,36v9.09c0,2.72,1.27,4.29,3.48,4.29a5.53,5.53,0,0,0,3.45-1.29l-.85-.92a3.55,3.55,0,0,1-2.49,1c-1.51,0-2.38-1.15-2.38-3.15V36l-.19-.35H228V34.52h-4.59l.19-.35V31l-1.21.69v2.46l.19.35h-1.9v1.15h1.9Zm3.48,13.67c-2.36,0-3.77-1.71-3.77-4.58V36h-1.71V34.23h1.71V31.54l1.8-1v3.71h4.39V36h-4.39V45c0,1.84.74,2.86,2.08,2.86a3.32,3.32,0,0,0,2.4-1l.11-.1,1.26,1.37-.12.1a5.84,5.84,0,0,1-3.76,1.45" transform="translate(-6.94 -5.28)"/><path class="cls-3" d="M241.66,47.58a6.29,6.29,0,0,1-4.84,2c-4.39,0-6.46-3.2-6.46-7.58s2.36-7.82,6.48-7.82a6.24,6.24,0,0,1,4.66,1.7L240.45,37a5,5,0,0,0-3.58-1.35c-3.4,0-5,3-5,6.28s1.39,6,4.95,6a5,5,0,0,0,3.78-1.56Z" transform="translate(-6.94 -5.28)"/><path class="cls-3" d="M236.84,34.28c-3.85,0-6.33,3-6.33,7.68s2.3,7.44,6.31,7.44a6.19,6.19,0,0,0,4.64-1.82l-.86-.93a5.09,5.09,0,0,1-3.78,1.5c-3.19,0-5.1-2.32-5.1-6.19s2-6.39,5.14-6.43a5.21,5.21,0,0,1,3.58,1.29l.86-1a6.12,6.12,0,0,0-4.46-1.57m0,15.41c-4.14,0-6.61-2.89-6.61-7.73s2.61-8,6.63-8a6.43,6.43,0,0,1,4.77,1.75l.09.1-1.25,1.4-.11-.11a4.86,4.86,0,0,0-3.48-1.3c-3.57.05-4.85,3.33-4.85,6.13,0,3.69,1.8,5.9,4.81,5.9a4.83,4.83,0,0,0,3.68-1.52l.1-.12,1.26,1.36-.09.1a6.43,6.43,0,0,1-5,2" transform="translate(-6.94 -5.28)"/><path class="cls-3" d="M255.58,49.31h-1.51V40c0-2.4-.79-4.34-4.23-4.34a4.36,4.36,0,0,0-4.64,4.64v9h-1.51V29.4h1.51v7.25h.05a5.66,5.66,0,0,1,4.84-2.51c3.82,0,5.49,2.23,5.49,5.52Z" transform="translate(-6.94 -5.28)"/><path class="cls-3" d="M254.22,49.16h1.21v-9.5c0-4.44-2.91-5.38-5.34-5.38a5.55,5.55,0,0,0-4.72,2.45l-.05.07h-.27V29.54h-1.21V49.16h1.21V40.32a4.49,4.49,0,0,1,4.79-4.79c3.92,0,4.38,2.56,4.38,4.49Zm1.51.29h-1.81V40c0-2-.46-4.2-4.08-4.2a4.22,4.22,0,0,0-4.49,4.5v9.13h-1.81V29.25h1.81v7A5.84,5.84,0,0,1,250.09,34c3.63,0,5.64,2,5.64,5.67Z" transform="translate(-6.94 -5.28)"/><path class="cls-3" d="M264.48,35.68c-3.51,0-4.91,2.77-4.91,6.16S261,48,264.48,48s4.9-2.77,4.9-6.16-1.44-6.16-4.9-6.16m0,13.86c-4.28,0-6.42-3.17-6.42-7.7s2.14-7.7,6.39-7.7,6.44,3.15,6.44,7.7-2.18,7.7-6.41,7.7" transform="translate(-6.94 -5.28)"/><path class="cls-3" d="M264.48,35.83c-3,0-4.76,2.19-4.76,6s1.78,6,4.76,6c4.29,0,4.76-4.21,4.76-6,0-5.43-3.33-6-4.76-6m0,12.32c-3.17,0-5.06-2.36-5.06-6.31s1.84-6.31,5.06-6.31,5,2.36,5,6.31-1.84,6.31-5,6.31m0-13.87c-3.91,0-6.24,2.83-6.24,7.56s2.34,7.56,6.27,7.56,6.27-2.83,6.27-7.56-2.3-7.56-6.3-7.56m0,15.41c-4.11,0-6.57-2.93-6.57-7.85S260.36,34,264.45,34,271,36.93,271,41.84s-2.51,7.85-6.56,7.85" transform="translate(-6.94 -5.28)"/><path class="cls-3" d="M280,36h-.39c-2.2,0-4.63,1.63-4.63,5.93v7.37h-1.51V34.37H275v3.25h0a4.92,4.92,0,0,1,4.82-3.41H280Z" transform="translate(-6.94 -5.28)"/><path class="cls-3" d="M273.64,49.16h1.21V41.94c0-4.49,2.58-6.08,4.78-6.08h.24v-1.5a4.77,4.77,0,0,0-4.68,3.31l0,.1h-.3V34.52h-1.21Zm1.5.29h-1.8V34.23h1.8V37a5,5,0,0,1,4.72-2.92h.3v2.1h-.53c-2.07,0-4.49,1.51-4.49,5.78Z" transform="translate(-6.94 -5.28)"/><path class="cls-3" d="M293.71,49.31H292.2V40.18c0-2.58-.79-4.5-4.23-4.5a4.39,4.39,0,0,0-4.64,4.71v8.92h-1.51V34.37h1.51v2.3h0a5.59,5.59,0,0,1,4.82-2.53c3.61,0,5.52,2,5.52,5.57Z" transform="translate(-6.94 -5.28)"/><path class="cls-3" d="M292.35,49.16h1.21V39.71c0-3.55-1.86-5.43-5.37-5.43a5.41,5.41,0,0,0-4.69,2.47l0,.07h-.28v-2.3H282V49.16h1.21V40.39A4.52,4.52,0,0,1,288,35.53c3.88,0,4.38,2.49,4.38,4.65Zm1.51.29h-1.81V40.18c0-2.15-.48-4.36-4.08-4.36a4.25,4.25,0,0,0-4.49,4.57v9.06h-1.81V34.23h1.81v2A5.74,5.74,0,0,1,288.19,34c3.65,0,5.67,2,5.67,5.72Z" transform="translate(-6.94 -5.28)"/><path class="cls-3" d="M311.32,40.2h-6.55l.16.17v7.16l-.16.19h6.57c3,0,4.37-1.33,4.37-3.72s-1.46-3.8-4.39-3.8m-.43-8.5h-6.12l.16.19v6.58l-.16.15h6.12c2.86,0,4-1.52,4-3.49,0-2.32-1.44-3.43-4-3.43m.45,17.61h-8.06V30.11h7.86c3.76,0,5.45,2.39,5.45,5a4.42,4.42,0,0,1-2.34,4v.05A4.72,4.72,0,0,1,317.42,44c0,3.22-2,5.31-6.08,5.31" transform="translate(-6.94 -5.28)"/><path class="cls-3" d="M305.07,38.47h5.82c2.48,0,3.84-1.19,3.84-3.34s-1.29-3.29-3.84-3.29h-5.82Zm5.82.29h-6.5l.39-.35V31.94l-.33-.39h6.44c2.71,0,4.13,1.24,4.13,3.58s-1.5,3.63-4.13,3.63m-5.82,8.81h6.27c2.84,0,4.22-1.17,4.22-3.57s-1.5-3.65-4.24-3.65h-6.25Zm6.27.3h-6.89l.33-.4v-7l-.35-.37h6.89c2.93,0,4.54,1.4,4.54,3.94s-1.52,3.87-4.52,3.87m-7.91,1.29h7.91c3.83,0,5.93-1.83,5.93-5.16a4.57,4.57,0,0,0-3.07-4.65l-.1,0v-.24l.08,0a4.24,4.24,0,0,0,2.26-3.9c0-3.6-2.85-4.88-5.3-4.88h-7.71Zm7.91.29h-8.2V30h8c4.13,0,5.6,2.79,5.6,5.17a4.57,4.57,0,0,1-2.2,4,4.84,4.84,0,0,1,3,4.83c0,3.47-2.27,5.45-6.23,5.45" transform="translate(-6.94 -5.28)"/><path class="cls-3" d="M331.39,49.31h-1.51V47h-.05a5.47,5.47,0,0,1-4.7,2.53c-3.85,0-5.45-2.2-5.45-5.8V34.37h1.51v9.25c0,2.39.7,4.38,4.14,4.38a4.32,4.32,0,0,0,4.55-4.71V34.37h1.51Z" transform="translate(-6.94 -5.28)"/><path class="cls-3" d="M319.83,34.52v9.22c0,3.75,1.78,5.66,5.3,5.66a5.29,5.29,0,0,0,4.58-2.47l0-.07H330v2.3h1.21V34.52H330v8.77a4.48,4.48,0,0,1-4.7,4.86c-3.8,0-4.29-2.42-4.29-4.53v-9.1Zm5.3,15.17c-3.72,0-5.6-2-5.6-5.95V34.23h1.81v9.39c0,2.09.47,4.24,4,4.24,2.13,0,4.4-1.2,4.4-4.57V34.23h1.8V49.45h-1.8v-2a5.58,5.58,0,0,1-4.6,2.27" transform="translate(-6.94 -5.28)"/><path class="cls-3" d="M336.28,49.31h-1.51V34.4h1.51ZM335.53,32c-.72,0-1.12-.5-1.12-1.35s.4-1.36,1.12-1.36,1.13.5,1.13,1.36S336.25,32,335.53,32" transform="translate(-6.94 -5.28)"/><path class="cls-3" d="M335.53,29.4c-.85,0-1,.76-1,1.21s.13,1.2,1,1.2,1-.75,1-1.2-.17-1.21-1-1.21m0,2.7c-.79,0-1.27-.56-1.27-1.49s.48-1.5,1.27-1.5,1.28.54,1.28,1.5-.48,1.49-1.28,1.49m-.61,17.06h1.21V34.55h-1.21Zm1.5.29h-1.8V34.25h1.8Z" transform="translate(-6.94 -5.28)"/></g><rect class="cls-3" x="332.71" y="24.12" width="1.49" height="19.91"/><path class="cls-3" d="M339.8,49.16H341V29.54H339.8Zm1.49.29h-1.78V29.25h1.78Z" transform="translate(-6.94 -5.28)"/><g class="cls-2"><path class="cls-3" d="M350.1,35.68c-3.53,0-4.86,3-4.86,6.3S346.55,48,350.1,48,355,45.32,355,42s-1.29-6.3-4.87-6.3m6.19,13.63h-1.5V47h-.05A5.1,5.1,0,0,1,350,49.54c-4.23,0-6.28-3.1-6.28-7.56s2-7.84,6.31-7.84a5.28,5.28,0,0,1,4.7,2.61h.05V29.42h1.5Z" transform="translate(-6.94 -5.28)"/><path class="cls-3" d="M350.1,35.83c-4.25,0-4.71,4.3-4.71,6.15,0,2.2.61,5.9,4.71,5.9s4.72-3.7,4.72-5.9c0-1.85-.46-6.15-4.72-6.15m0,12.34c-3.23,0-5-2.19-5-6.19s1.88-6.45,5-6.45,5,2.35,5,6.45-1.78,6.19-5,6.19M350,34.28c-3.86,0-6.16,2.88-6.16,7.7s2.23,7.42,6.13,7.42a5,5,0,0,0,4.6-2.49l0-.07h.28v2.32h1.22V29.57h-1.22v7.32h-.27l0-.07A5.14,5.14,0,0,0,350,34.28m0,15.41c-4,0-6.43-2.88-6.43-7.71,0-5,2.41-8,6.46-8a5.44,5.44,0,0,1,4.6,2.34V29.27h1.8V49.45h-1.8v-2A5.28,5.28,0,0,1,350,49.69" transform="translate(-6.94 -5.28)"/><path class="cls-3" d="M370.33,41.11l-.16-.17c-.23-3.22-1.92-5.26-4.8-5.26s-4.57,2-4.93,5.26l-.16.17Zm1.37,1.47H360.26l.16.14c.38,3.53,2.05,5.28,5,5.28a5.55,5.55,0,0,0,3.9-1.56l1.06,1.14a6.83,6.83,0,0,1-5,2c-4.5,0-6.57-3.2-6.57-7.58,0-4.62,2.38-7.82,6.46-7.82,4.3,0,6.37,3.24,6.37,7.82a5.82,5.82,0,0,1,0,.62" transform="translate(-6.94 -5.28)"/><path class="cls-3" d="M360.59,41H370c-.23-3.26-1.92-5.12-4.65-5.12-3.48,0-4.52,2.79-4.78,5.13Zm10.08.29H359.94l.36-.38c.4-3.44,2.2-5.34,5.07-5.34s4.69,2,4.94,5.35Zm-5.32-7c-3.84,0-6.31,3-6.31,7.68s2.34,7.44,6.42,7.44a6.74,6.74,0,0,0,4.75-1.83l-.86-.92a5.67,5.67,0,0,1-3.89,1.5c-3,0-4.78-1.8-5.18-5.36l-.4-.36h11.68c0-.14,0-.27,0-.47,0-4.88-2.26-7.68-6.22-7.68m.11,15.41c-4.27,0-6.72-2.82-6.72-7.73s2.6-8,6.61-8,6.52,3,6.52,8a6,6,0,0,1,0,.63l0,.13H360.57c.38,3.46,2,5.14,4.89,5.14a5.38,5.38,0,0,0,3.8-1.53l.1-.1,1.26,1.35-.1.1a7,7,0,0,1-5.06,2" transform="translate(-6.94 -5.28)"/><path class="cls-3" d="M380.84,36h-.38c-2.2,0-4.64,1.63-4.64,5.93v7.37h-1.5V34.37h1.5v3.25h.05a4.92,4.92,0,0,1,4.82-3.41h.15Z" transform="translate(-6.94 -5.28)"/><path class="cls-3" d="M374.46,49.16h1.22V41.94c0-4.49,2.57-6.08,4.78-6.08h.24v-1.5A4.77,4.77,0,0,0,376,37.67l0,.1h-.29V34.52h-1.22Zm1.51.29h-1.8V34.23H376V37a5,5,0,0,1,4.72-2.92h.3v2.1h-.53c-2.07,0-4.49,1.51-4.49,5.78Z" transform="translate(-6.94 -5.28)"/><path class="cls-3" d="M387.65,49.57a7.77,7.77,0,0,1-5.79-2.4L383,45.94A6.12,6.12,0,0,0,387.58,48c2.54,0,3.94-1.09,3.94-2.59,0-1.23-.72-2-2.7-2.56-.3-.07-2.21-.68-2.52-.78-2.5-.78-4.1-1.78-4.1-3.93s1.57-4,5.29-4a6.67,6.67,0,0,1,5.15,2.25l-1.14,1.18a5,5,0,0,0-4-1.89c-2.48,0-3.76,1.11-3.76,2.41s1.08,1.88,3.33,2.54c.29.1,2,.67,2.28.76,2.74.83,3.71,2.16,3.71,4,0,2.06-1.42,4.22-5.4,4.22" transform="translate(-6.94 -5.28)"/><path class="cls-3" d="M382.06,47.17a7.66,7.66,0,0,0,5.59,2.25c3.87,0,5.25-2.1,5.25-4.07s-1.11-3.06-3.61-3.82L387.73,41l-.72-.24c-2.11-.62-3.43-1.29-3.43-2.67s1.21-2.57,3.91-2.57a5.13,5.13,0,0,1,4,1.82l.94-1a6.54,6.54,0,0,0-4.95-2.11c-3.8,0-5.15,2.1-5.15,3.89,0,2.11,1.6,3,4,3.79l.69.22,1.82.56c2,.6,2.82,1.38,2.82,2.7,0,1.66-1.61,2.73-4.09,2.73a6.1,6.1,0,0,1-4.54-2Zm5.59,2.54a7.93,7.93,0,0,1-5.9-2.44l-.09-.1L383,45.73l.1.1a6,6,0,0,0,4.45,2.05c2.34,0,3.79-.93,3.79-2.44,0-1.18-.73-1.86-2.6-2.42-.19,0-1.14-.34-1.83-.56l-.69-.22c-2.18-.68-4.2-1.65-4.2-4.07,0-1.93,1.42-4.18,5.44-4.18a6.83,6.83,0,0,1,5.26,2.3l.1.1-1.36,1.4-.11-.12a4.88,4.88,0,0,0-3.89-1.84c-2.5,0-3.61,1.14-3.61,2.27s.87,1.7,3.22,2.39l.72.24,1.56.52c2.6.79,3.82,2.09,3.82,4.1s-1.46,4.36-5.55,4.36" transform="translate(-6.94 -5.28)"/></g><path class="cls-3" d="M10.23,22.83,40.2,7l30,15.83-30,15.82Zm30-17.55L6.94,22.83,40.23,40.38v0L73.48,22.85v0Z" transform="translate(-6.94 -5.28)"/><path class="cls-3" d="M8.48,58.29V26.94L38,42.7V74.06ZM7,24.4V59.21L39.5,76.6h0V41.79L7,24.39Z" transform="translate(-6.94 -5.28)"/><path class="cls-3" d="M42.45,42.7,72,26.94V58.29L42.44,74.06Zm-1.54-.91v34.8h0L73.48,59.21V24.4h0Z" transform="translate(-6.94 -5.28)"/></svg>